M48
;GenerationSoftware,Autodesk,EAGLE,9.5.2*%
;CreationDate,2020-03-02T21:55:02Z*%
FMAT,2
ICI,OFF
METRIC,TZ,000.000
T9C0.200
T8C0.300
T7C0.400
T6C0.508
T5C0.650
T4C0.700
T3C1.016
T2C3.000
T1C3.302
%
G90
M71
T1
X150876Y69850
X53848Y69850
X105156Y128270
X2540Y69850
X99568Y69850
X2540Y2540
X48260Y2540
X48260Y60960
X2540Y60960
X48260Y69850
X48260Y128270
X99568Y128270
X53848Y128270
X53848Y2540
X99568Y2540
X99568Y60960
X53848Y60960
X2540Y128270
X105156Y69850
X105156Y2540
X150876Y2540
X150876Y60960
X105156Y60960
X150876Y128270
T2
X12903Y22860
X37903Y22860
X64211Y22860
X89211Y22860
X115519Y22860
X12903Y90170
X37903Y90170
X115519Y90170
X140519Y90170
X64211Y90170
X89211Y90170
X140519Y22860
T3
X103886Y38100
X103886Y20320
X135509Y53594
X130492Y53594
X125539Y53594
X120459Y53594
X103886Y12700
X103886Y10160
X152146Y45720
X152146Y43180
X152146Y40640
X152146Y38100
X152146Y35560
X152146Y33020
X152146Y30480
X103886Y15240
X103886Y17780
X1270Y113030
X1270Y110490
X1270Y107950
X1270Y105410
X1270Y87630
X32893Y120904
X103886Y85090
X27876Y120904
X22923Y120904
X17844Y120904
X1270Y80010
X1270Y77470
X49530Y113030
X49530Y110490
X49530Y107950
X49530Y105410
X49530Y102870
X49530Y100330
X49530Y97790
X100838Y45720
X1270Y82550
X1270Y85090
X52578Y113030
X52578Y110490
X52578Y107950
X52578Y105410
X52578Y87630
X84201Y120904
X79185Y120904
X74232Y120904
X69152Y120904
X52578Y80010
X1270Y45720
X1270Y43180
X1270Y40640
X1270Y38100
X1270Y20320
X52578Y77470
X100838Y113030
X100838Y110490
X100838Y107950
X32893Y53594
X27876Y53594
X22923Y53594
X17844Y53594
X100838Y105410
X100838Y102870
X100838Y97790
X52578Y82550
X52578Y85090
X103886Y113030
X103886Y110490
X103886Y107950
X103886Y105410
X103886Y87630
X1270Y12700
X1270Y10160
X49530Y45720
X49530Y43180
X49530Y40640
X49530Y38100
X49530Y35560
X49530Y33020
X49530Y30480
X1270Y15240
X1270Y17780
X52578Y45720
X52578Y43180
X52578Y40640
X52578Y38100
X52578Y20320
X135509Y120904
X130492Y120904
X125539Y120904
X120459Y120904
X84201Y53594
X79185Y53594
X74232Y53594
X69152Y53594
X103886Y80010
X103886Y77470
X152146Y113030
X152146Y110490
X152146Y107950
X152146Y105410
X152146Y102870
X152146Y100330
X152146Y97790
X103886Y82550
X52578Y12700
X52578Y10160
X100838Y100330
X100838Y43180
X100838Y40640
X100838Y38100
X100838Y35560
X100838Y33020
X100838Y30480
X52578Y15240
X52578Y17780
X103886Y45720
X103886Y43180
X103886Y40640
T4
X79530Y58674
X125194Y58674
X121694Y58674
X22578Y125984
X19078Y125984
X31722Y125984
X28222Y125984
X134338Y58674
X130838Y58674
X130838Y125984
X125194Y125984
X121694Y125984
X28222Y58674
X31722Y58674
X19078Y58674
X22578Y58674
X70386Y58674
X73886Y58674
X134338Y125984
X83030Y58674
X73886Y125984
X70386Y125984
X83030Y125984
X79530Y125984
T5
X13685Y5032
X59213Y5032
X64993Y5032
X110521Y5032
X116301Y5032
X7905Y72342
X13685Y72342
X59213Y72342
X110521Y72342
X116301Y72342
X7905Y5032
X64993Y72342
T6
X150241Y26035
X150241Y27305
X150241Y22225
X151511Y23495
X151511Y24765
X151511Y26035
X151511Y27305
X151511Y22225
X150241Y90805
X150241Y92075
X150241Y93345
X150241Y89535
X151511Y90805
X151511Y92075
X151511Y93345
X98933Y24765
X151511Y94615
X151511Y89535
X150241Y23495
X47625Y23495
X47625Y24765
X47625Y26035
X47625Y27305
X47625Y22225
X48895Y23495
X48895Y24765
X48895Y26035
X48895Y27305
X48895Y22225
X98933Y23495
X150241Y94615
X98933Y26035
X98933Y27305
X98933Y22225
X100203Y23495
X100203Y24765
X100203Y26035
X100203Y27305
X100203Y22225
X150241Y24765
X47625Y90805
X47625Y92075
X98933Y90805
X98933Y92075
X98933Y93345
X98933Y94615
X98933Y89535
X100203Y90805
X100203Y92075
X100203Y93345
X100203Y94615
X100203Y89535
X47625Y93345
X47625Y94615
X47625Y89535
X48895Y90805
X48895Y92075
X48895Y93345
X48895Y94615
X48895Y89535
T7
X54483Y102870
X77978Y75438
X119126Y8128
X3175Y35560
X1905Y35560
X120396Y8128
X3175Y102870
X27940Y75438
X105791Y35560
X1905Y102870
X69088Y75438
X67818Y75438
X53213Y102870
X26670Y75438
X67818Y8128
X77978Y8128
X79248Y8128
X17780Y75438
X120396Y75438
X69088Y8128
X119126Y75438
X130556Y8128
X129286Y8128
X104521Y35560
X27940Y8128
X129286Y75438
X26670Y8128
X17780Y8128
X16510Y8128
X53213Y35560
X54483Y35560
X16510Y75438
X79248Y75438
X105791Y102870
X104521Y102870
X130556Y75438
T8
X23495Y49022
X23876Y27559
X30988Y44323
X29845Y35052
X23876Y44704
X27813Y35814
X39243Y40894
X30480Y33020
X44450Y17399
X43815Y21082
X43688Y29083
X30861Y29083
X9017Y50800
X26289Y33937
X23876Y43561
X23241Y26670
X24892Y28575
X33020Y28476
X41501Y12319
X38735Y12319
X48260Y48387
X45212Y37973
X3175Y31877
X44704Y12573
X46482Y12446
X63500Y27813
X60833Y18542
X74803Y38227
X67437Y34925
X67437Y33401
X61214Y31877
X62865Y42164
X80645Y41021
X56642Y35052
X75184Y48260
X75184Y47498
X65405Y47879
X58293Y51308
X61214Y53467
X64770Y54483
X60452Y57785
X66929Y16129
X66929Y10287
X66294Y7239
X57912Y7239
X66167Y18034
X52197Y25908
X58547Y25908
X60198Y36195
X70866Y19558
X76708Y19812
X70866Y25400
X70866Y30861
X81788Y31623
X86106Y19431
X80010Y13716
X71120Y12700
X100457Y7239
X90170Y4318
X74041Y10160
X86868Y7620
X58039Y19177
X58928Y21590
X55118Y21590
X55118Y19050
X91567Y52451
X90297Y51943
X90297Y48387
X87503Y48387
X87503Y51943
X88138Y58674
X93218Y58674
X94488Y57531
X97282Y54864
X94869Y53086
X97028Y52705
X99568Y49530
X87884Y41148
X92329Y24003
X96774Y24003
X90678Y31750
X85979Y31496
X74549Y25527
X77470Y26924
X79121Y26924
X83312Y27305
X83058Y37338
X83058Y36322
X87376Y43434
X70739Y40132
X66548Y40132
X66548Y38227
X70104Y38227
X67183Y36322
X62611Y37211
X68707Y44323
X67183Y46355
X69723Y48895
X63373Y45466
X60198Y45720
X60198Y48260
X56388Y57150
X56388Y50800
X64262Y58928
X66929Y57658
X62103Y61722
X66548Y61722
X76581Y61849
X57658Y59690
X84963Y61722
X76708Y54610
X87249Y54737
X95758Y60960
X100838Y51308
X90678Y34290
X87122Y34290
X94234Y33528
X94234Y37719
X94615Y41910
X94615Y44450
X71628Y44450
X76454Y42799
X77851Y44069
X78359Y45212
X98044Y42418
X97536Y36830
X94234Y35687
X100076Y28829
X87757Y14478
X90170Y15621
X89789Y9652
X84709Y10160
X83693Y4318
X92710Y2540
X78613Y6223
X70993Y6477
X68326Y2032
X73533Y2540
X78613Y2540
X83693Y2413
X71247Y10033
X66294Y12573
X55118Y6350
X52578Y7620
X57658Y12700
X55245Y25400
X52070Y33655
X52197Y29845
X54229Y36830
X54356Y39370
X58801Y10033
X65913Y10160
X63627Y12192
X67564Y21082
X69088Y17653
X68834Y29083
X63500Y31623
X64262Y35433
X83058Y38608
X86360Y38608
X84582Y42291
X75819Y40640
X90932Y38989
X77978Y50673
X81788Y53340
X82677Y50800
X76708Y14859
X82169Y19812
X75438Y6604
X101092Y5080
X96393Y3175
X95885Y6858
X94361Y12319
X94361Y9779
X93726Y17399
X97409Y21336
X54737Y41910
X68707Y23495
X70485Y23368
X67437Y26924
X69342Y25019
X100076Y56642
X99568Y52705
X88519Y38989
X89916Y46355
X82677Y48387
X74295Y21209
X77470Y28448
X79121Y28448
X76581Y32258
X73279Y38227
X83058Y13970
X62865Y25781
X59055Y1270
X65151Y1270
X68326Y6350
X75057Y12700
X74041Y34671
X71628Y33528
X65151Y27813
X58547Y31623
X55118Y9398
X78486Y47498
X93958Y56499
X94432Y30099
X97155Y38481
X62969Y55118
X58801Y55245
X73886Y55753
X63500Y51562
X67437Y51689
X81280Y50546
X89027Y46863
X94742Y47117
X95631Y46736
X91059Y56388
X90932Y46990
X93472Y31369
X93599Y44323
X77978Y25781
X61214Y26670
X59944Y26670
X73914Y24130
X96520Y46609
X95532Y35560
X95532Y22225
X73914Y39116
X59690Y10795
X75311Y15367
X61976Y13843
X84681Y16637
X84328Y25781
X96647Y27686
X96625Y35709
X80772Y32004
X97155Y34925
X97155Y29591
X84328Y25019
X97663Y34163
X97536Y27686
X76708Y23749
X77216Y25273
X78613Y22606
X66548Y27150
X84328Y26543
X98171Y28448
X98171Y33528
X83820Y34163
X80645Y33274
X80673Y36449
X75946Y21463
X91694Y17780
X83439Y15367
X94107Y6477
X84075Y16003
X93091Y6957
X72263Y49657
X73914Y28448
X74168Y49657
X79629Y32004
X57150Y54229
X77089Y34544
X84328Y27305
X98679Y29083
X98679Y30734
X93726Y49784
X85852Y24229
X92964Y25527
X92964Y30734
X78740Y24356
X56896Y38989
X79502Y22098
X57531Y40005
X94107Y52578
X83566Y21844
X92456Y20955
X92456Y31369
X82931Y22606
X96012Y21590
X96012Y36703
X74803Y49022
X75184Y27559
X82296Y44323
X81153Y35052
X75184Y44704
X79121Y35814
X90551Y40894
X81788Y33020
X95758Y17399
X95123Y21082
X94996Y29083
X82169Y29083
X60325Y50800
X77597Y33937
X75184Y43561
X74549Y26670
X76200Y28575
X84328Y28476
X92809Y12319
X90043Y12319
X99568Y48387
X96520Y37973
X54483Y31877
X96012Y12573
X97790Y12446
X114808Y27813
X112141Y18542
X126111Y38227
X118745Y34925
X118745Y33401
X112522Y31877
X114173Y42164
X131953Y41021
X107950Y35052
X126492Y48260
X126492Y47498
X116713Y47879
X109601Y51308
X112522Y53467
X116078Y54483
X111760Y57785
X118237Y16129
X118237Y10287
X117602Y7239
X109220Y7239
X117475Y18034
X103505Y25908
X109855Y25908
X111506Y36195
X122174Y19558
X128016Y19812
X122174Y25400
X122174Y30861
X133096Y31623
X137414Y19431
X131318Y13716
X122428Y12700
X151765Y7239
X141478Y4318
X125349Y10160
X138176Y7620
X109347Y19177
X110236Y21590
X106426Y21590
X106426Y19050
X142875Y52451
X141605Y51943
X141605Y48387
X138811Y48387
X138811Y51943
X139446Y58674
X144526Y58674
X145796Y57531
X148590Y54864
X146177Y53086
X148336Y52705
X150876Y49530
X139192Y41148
X143637Y24003
X148082Y24003
X141986Y31750
X137287Y31496
X125857Y25527
X128778Y26924
X130429Y26924
X134620Y27305
X134366Y37338
X134366Y36322
X138684Y43434
X122047Y40132
X117856Y40132
X117856Y38227
X121412Y38227
X118491Y36322
X113919Y37211
X120015Y44323
X118491Y46355
X121031Y48895
X114681Y45466
X111506Y45720
X111506Y48260
X107696Y57150
X107696Y50800
X115570Y58928
X118237Y57658
X113411Y61722
X117856Y61722
X127889Y61849
X108966Y59690
X136271Y61722
X128016Y54610
X138557Y54737
X147066Y60960
X152146Y51308
X141986Y34290
X138430Y34290
X145542Y33528
X145542Y37719
X145923Y41910
X145923Y44450
X122936Y44450
X127762Y42799
X129159Y44069
X129667Y45212
X149352Y42418
X148844Y36830
X145542Y35687
X151384Y28829
X139065Y14478
X141478Y15621
X141097Y9652
X136017Y10160
X135001Y4318
X144018Y2540
X129921Y6223
X122301Y6477
X119634Y2032
X124841Y2540
X129921Y2540
X135001Y2413
X122555Y10033
X117602Y12573
X106426Y6350
X103886Y7620
X108966Y12700
X106553Y25400
X103378Y33655
X103505Y29845
X105537Y36830
X105664Y39370
X110109Y10033
X117221Y10160
X114935Y12192
X118872Y21082
X120396Y17653
X120142Y29083
X114808Y31623
X115570Y35433
X134366Y38608
X137668Y38608
X135890Y42291
X127127Y40640
X142240Y38989
X129286Y50673
X133096Y53340
X133985Y50800
X128016Y14859
X133477Y19812
X126746Y6604
X152400Y5080
X147701Y3175
X147193Y6858
X145669Y12319
X145669Y9779
X145034Y17399
X148717Y21336
X106045Y41910
X120015Y23495
X121793Y23368
X118745Y26924
X120650Y25019
X151384Y56642
X150876Y52705
X139827Y38989
X141224Y46355
X133985Y48387
X125603Y21209
X128778Y28448
X130429Y28448
X127889Y32258
X124587Y38227
X134366Y13970
X114173Y25781
X110363Y1270
X116459Y1270
X119634Y6350
X126365Y12700
X125349Y34671
X122936Y33528
X116459Y27813
X109855Y31623
X106426Y9398
X129794Y47498
X145266Y56499
X145740Y30099
X148463Y38481
X114277Y55118
X110109Y55245
X125194Y55753
X114808Y51562
X118745Y51689
X132588Y50546
X140335Y46863
X146050Y47117
X146939Y46736
X142367Y56388
X142240Y46990
X144780Y31369
X144907Y44323
X129286Y25781
X112522Y26670
X111252Y26670
X125222Y24130
X147828Y46609
X146840Y35560
X146840Y22225
X125222Y39116
X110998Y10795
X126619Y15367
X113284Y13843
X135989Y16637
X135636Y25781
X147955Y27686
X147933Y35709
X132080Y32004
X148463Y34925
X148463Y29591
X135636Y25019
X148971Y34163
X148844Y27686
X128016Y23749
X128524Y25273
X129921Y22606
X117856Y27150
X135636Y26543
X149479Y28448
X149479Y33528
X135128Y34163
X131953Y33274
X131981Y36449
X127254Y21463
X143002Y17780
X134747Y15367
X145415Y6477
X135383Y16003
X144399Y6957
X123571Y49657
X125222Y28448
X125476Y49657
X130937Y32004
X108458Y54229
X128397Y34544
X135636Y27305
X149987Y29083
X149987Y30734
X145034Y49784
X137160Y24229
X144272Y25527
X144272Y30734
X130048Y24356
X108204Y38989
X130810Y22098
X108839Y40005
X145415Y52578
X134874Y21844
X143764Y20955
X143764Y31369
X134239Y22606
X147320Y21590
X147320Y36703
X126111Y49022
X126492Y27559
X133604Y44323
X132461Y35052
X126492Y44704
X130429Y35814
X141859Y40894
X133096Y33020
X147066Y17399
X146431Y21082
X146304Y29083
X133477Y29083
X111633Y50800
X128905Y33937
X126492Y43561
X125857Y26670
X127508Y28575
X135636Y28476
X144117Y12319
X141351Y12319
X150876Y48387
X147828Y37973
X105791Y31877
X147320Y12573
X149098Y12446
X12192Y95123
X9525Y85852
X23495Y105537
X16129Y102235
X16129Y100711
X9906Y99187
X11557Y109474
X29337Y108331
X5334Y102362
X23876Y115570
X23876Y114808
X14097Y115189
X6985Y118618
X9906Y120777
X13462Y121793
X9144Y125095
X15621Y83439
X15621Y77597
X14986Y74549
X6604Y74549
X14859Y85344
X889Y93218
X7239Y93218
X8890Y103505
X19558Y86868
X25400Y87122
X19558Y92710
X19558Y98171
X30480Y98933
X34798Y86741
X28702Y81026
X19812Y80010
X49149Y74549
X38862Y71628
X22733Y77470
X35560Y74930
X6731Y86487
X7620Y88900
X3810Y88900
X3810Y86360
X40259Y119761
X38989Y119253
X38989Y115697
X36195Y115697
X36195Y119253
X36830Y125984
X41910Y125984
X43180Y124841
X45974Y122174
X43561Y120396
X45720Y120015
X48260Y116840
X36576Y108458
X41021Y91313
X45466Y91313
X39370Y99060
X34671Y98806
X23241Y92837
X26162Y94234
X27813Y94234
X32004Y94615
X31750Y104648
X31750Y103632
X36068Y110744
X19431Y107442
X15240Y107442
X15240Y105537
X18796Y105537
X15875Y103632
X11303Y104521
X17399Y111633
X15875Y113665
X18415Y116205
X12065Y112776
X8890Y113030
X8890Y115570
X5080Y124460
X5080Y118110
X12954Y126238
X15621Y124968
X10795Y129032
X15240Y129032
X25273Y129159
X6350Y127000
X33655Y129032
X25400Y121920
X35941Y122047
X44450Y128270
X49530Y118618
X39370Y101600
X35814Y101600
X42926Y100838
X42926Y105029
X43307Y109220
X43307Y111760
X20320Y111760
X25146Y110109
X26543Y111379
X27051Y112522
X46736Y109728
X46228Y104140
X42926Y102997
X48768Y96139
X36449Y81788
X38862Y82931
X38481Y76962
X33401Y77470
X32385Y71628
X41402Y69850
X27305Y73533
X19685Y73787
X17018Y69342
X22225Y69850
X27305Y69850
X32385Y69723
X19939Y77343
X14986Y79883
X3810Y73660
X1270Y74930
X6350Y80010
X3937Y92710
X762Y100965
X889Y97155
X2921Y104140
X3048Y106680
X7493Y77343
X41656Y30734
X12319Y79502
X16256Y88392
X17780Y84963
X17526Y96393
X12192Y98933
X12954Y102743
X31750Y105918
X35052Y105918
X33274Y109601
X24511Y107950
X39624Y106299
X26670Y117983
X30480Y120650
X31369Y118110
X25400Y82169
X30861Y87122
X24130Y73914
X49784Y72390
X45085Y70485
X44577Y74168
X43053Y79629
X43053Y77089
X42418Y84709
X46101Y88646
X3429Y109220
X17399Y90805
X19177Y90678
X16129Y94234
X18034Y92329
X48768Y123952
X48260Y120015
X37211Y106299
X38608Y113665
X31369Y115697
X22987Y88519
X26162Y95758
X27813Y95758
X25273Y99568
X21971Y105537
X31750Y81280
X11557Y93091
X7747Y68580
X13843Y68580
X17018Y73660
X23749Y80010
X22733Y101981
X20320Y100838
X13843Y95123
X7239Y98933
X3810Y76708
X27178Y114808
X42650Y123809
X43124Y97409
X45847Y105791
X11661Y122428
X7493Y122555
X22578Y123063
X12192Y118872
X16129Y118999
X29972Y117856
X37719Y114173
X43434Y114427
X44323Y114046
X39751Y123698
X39624Y114300
X42164Y98679
X42291Y111633
X26670Y93091
X9906Y93980
X8636Y93980
X22606Y91440
X45212Y113919
X44224Y102870
X44224Y89535
X22606Y106426
X8382Y78105
X24003Y82677
X10668Y81153
X33373Y83947
X33020Y93091
X45339Y94996
X45317Y103019
X29464Y99314
X45847Y102235
X45847Y96901
X33020Y92329
X46355Y101473
X46228Y94996
X25400Y91059
X25908Y92583
X27305Y89916
X15240Y94460
X33020Y93853
X46863Y95758
X46863Y100838
X32512Y101473
X29337Y100584
X29365Y103759
X24638Y88773
X40386Y85090
X32131Y82677
X42799Y73787
X32767Y83313
X41783Y74267
X20955Y116967
X22606Y95758
X22860Y116967
X28321Y99314
X5842Y121539
X25781Y101854
X33020Y94615
X47371Y96393
X47371Y98044
X42418Y117094
X34544Y91539
X41656Y92837
X41656Y98044
X27432Y91666
X5588Y106299
X28194Y89408
X6223Y107315
X42799Y119888
X32258Y89154
X41148Y88265
X41148Y98679
X31623Y89916
X44704Y88900
X44704Y104013
X23495Y116332
X23876Y94869
X30988Y111633
X29845Y102362
X23876Y112014
X27813Y103124
X39243Y108204
X30480Y100330
X44450Y84709
X43815Y88392
X43688Y96393
X30861Y96393
X9017Y118110
X26289Y101247
X23876Y110871
X23241Y93980
X24892Y95885
X33020Y95786
X41501Y79629
X38735Y79629
X48260Y115697
X45212Y105283
X3175Y99187
X44704Y79883
X46482Y79756
X63500Y95123
X60833Y85852
X74803Y105537
X67437Y102235
X67437Y100711
X61214Y99187
X62865Y109474
X80645Y108331
X56642Y102362
X75184Y115570
X75184Y114808
X65405Y115189
X58293Y118618
X61214Y120777
X64770Y121793
X60452Y125095
X66929Y83439
X66929Y77597
X66294Y74549
X57912Y74549
X66167Y85344
X52197Y93218
X58547Y93218
X60198Y103505
X70866Y86868
X76708Y87122
X70866Y92710
X70866Y98171
X81788Y98933
X86106Y86741
X80010Y81026
X71120Y80010
X100457Y74549
X90170Y71628
X74041Y77470
X86868Y74930
X58039Y86487
X58928Y88900
X55118Y88900
X55118Y86360
X91567Y119761
X90297Y119253
X90297Y115697
X87503Y115697
X87503Y119253
X88138Y125984
X93218Y125984
X94488Y124841
X97282Y122174
X94869Y120396
X97028Y120015
X99568Y116840
X87884Y108458
X92329Y91313
X96774Y91313
X90678Y99060
X85979Y98806
X74549Y92837
X77470Y94234
X79121Y94234
X83312Y94615
X83058Y104648
X83058Y103632
X87376Y110744
X70739Y107442
X66548Y107442
X66548Y105537
X70104Y105537
X67183Y103632
X62611Y104521
X68707Y111633
X67183Y113665
X69723Y116205
X63373Y112776
X60198Y113030
X60198Y115570
X56388Y124460
X56388Y118110
X64262Y126238
X66929Y124968
X62103Y129032
X66548Y129032
X76581Y129159
X57658Y127000
X84963Y129032
X76708Y121920
X87249Y122047
X95758Y128270
X100838Y118618
X90678Y101600
X87122Y101600
X94234Y100838
X94234Y105029
X94615Y109220
X94615Y111760
X71628Y111760
X76454Y110109
X77851Y111379
X78359Y112522
X98044Y109728
X97536Y104140
X94234Y102997
X100076Y96139
X87757Y81788
X90170Y82931
X89789Y76962
X84709Y77470
X83693Y71628
X92710Y69850
X78613Y73533
X70993Y73787
X68326Y69342
X73533Y69850
X78613Y69850
X83693Y69723
X71247Y77343
X66294Y79883
X55118Y73660
X52578Y74930
X57658Y80010
X55245Y92710
X52070Y100965
X52197Y97155
X54229Y104140
X54356Y106680
X58801Y77343
X65913Y77470
X63627Y79502
X67564Y88392
X69088Y84963
X68834Y96393
X63500Y98933
X64262Y102743
X83058Y105918
X86360Y105918
X84582Y109601
X75819Y107950
X90932Y106299
X77978Y117983
X81788Y120650
X82677Y118110
X76708Y82169
X82169Y87122
X75438Y73914
X101092Y72390
X96393Y70485
X95885Y74168
X94361Y79629
X94361Y77089
X93726Y84709
X97409Y88646
X54737Y109220
X68707Y90805
X70485Y90678
X67437Y94234
X69342Y92329
X100076Y123952
X99568Y120015
X88519Y106299
X89916Y113665
X82677Y115697
X74295Y88519
X77470Y95758
X79121Y95758
X76581Y99568
X73279Y105537
X83058Y81280
X62865Y93091
X59055Y68580
X65151Y68580
X68326Y73660
X75057Y80010
X74041Y101981
X71628Y100838
X65151Y95123
X58547Y98933
X55118Y76708
X78486Y114808
X93958Y123809
X94432Y97409
X97155Y105791
X62969Y122428
X58801Y122555
X73886Y123063
X63500Y118872
X67437Y118999
X81280Y117856
X89027Y114173
X94742Y114427
X95631Y114046
X91059Y123698
X90932Y114300
X93472Y98679
X93599Y111633
X77978Y93091
X61214Y93980
X59944Y93980
X73914Y91440
X96520Y113919
X95532Y102870
X95532Y89535
X73914Y106426
X59690Y78105
X75311Y82677
X61976Y81153
X84681Y83947
X84328Y93091
X96647Y94996
X96625Y103019
X80772Y99314
X97155Y102235
X97155Y96901
X84328Y92329
X97663Y101473
X97536Y94996
X76708Y91059
X77216Y92583
X78613Y89916
X66548Y94460
X84328Y93853
X98171Y95758
X98171Y100838
X83820Y101473
X80645Y100584
X80673Y103759
X75946Y88773
X91694Y85090
X83439Y82677
X94107Y73787
X84075Y83313
X93091Y74267
X72263Y116967
X73914Y95758
X74168Y116967
X79629Y99314
X57150Y121539
X77089Y101854
X84328Y94615
X98679Y96393
X98679Y98044
X93726Y117094
X85852Y91539
X92964Y92837
X92964Y98044
X78740Y91666
X56896Y106299
X79502Y89408
X57531Y107315
X94107Y119888
X83566Y89154
X92456Y88265
X92456Y98679
X82931Y89916
X96012Y88900
X96012Y104013
X74803Y116332
X75184Y94869
X82296Y111633
X81153Y102362
X75184Y112014
X79121Y103124
X90551Y108204
X81788Y100330
X95758Y84709
X95123Y88392
X94996Y96393
X82169Y96393
X60325Y118110
X77597Y101247
X75184Y110871
X74549Y93980
X76200Y95885
X84328Y95786
X92809Y79629
X90043Y79629
X99568Y115697
X96520Y105283
X54483Y99187
X96012Y79883
X97790Y79756
X114808Y95123
X112141Y85852
X126111Y105537
X118745Y102235
X118745Y100711
X112522Y99187
X114173Y109474
X131953Y108331
X107950Y102362
X126492Y115570
X126492Y114808
X116713Y115189
X109601Y118618
X112522Y120777
X116078Y121793
X111760Y125095
X118237Y83439
X118237Y77597
X117602Y74549
X109220Y74549
X117475Y85344
X103505Y93218
X109855Y93218
X111506Y103505
X122174Y86868
X128016Y87122
X122174Y92710
X122174Y98171
X133096Y98933
X137414Y86741
X131318Y81026
X122428Y80010
X151765Y74549
X141478Y71628
X125349Y77470
X138176Y74930
X109347Y86487
X110236Y88900
X106426Y88900
X106426Y86360
X142875Y119761
X141605Y119253
X141605Y115697
X138811Y115697
X139446Y125984
X144526Y125984
X145796Y124841
X148590Y122174
X146177Y120396
X148336Y120015
X150876Y116840
X139192Y108458
X143637Y91313
X148082Y91313
X141986Y99060
X137287Y98806
X125857Y92837
X128778Y94234
X130429Y94234
X134620Y94615
X134366Y104648
X134366Y103632
X138684Y110744
X122047Y107442
X117856Y107442
X117856Y105537
X121412Y105537
X118491Y103632
X113919Y104521
X120015Y111633
X118491Y113665
X121031Y116205
X114681Y112776
X111506Y113030
X111506Y115570
X107696Y124460
X107696Y118110
X115570Y126238
X118237Y124968
X113411Y129032
X117856Y129032
X127889Y129159
X108966Y127000
X136271Y129032
X128016Y121920
X138557Y122047
X147066Y128270
X152146Y118618
X141986Y101600
X138430Y101600
X145542Y100838
X145542Y105029
X145923Y109220
X145923Y111760
X122936Y111760
X127762Y110109
X129159Y111379
X129667Y112522
X149352Y109728
X148844Y104140
X145542Y102997
X151384Y96139
X139065Y81788
X141478Y82931
X141097Y76962
X136017Y77470
X135001Y71628
X144018Y69850
X129921Y73533
X122301Y73787
X119634Y69342
X124841Y69850
X129921Y69850
X135001Y69723
X122555Y77343
X117602Y79883
X106426Y73660
X103886Y74930
X108966Y80010
X106553Y92710
X103378Y100965
X103505Y97155
X105537Y104140
X105664Y106680
X110109Y77343
X117221Y77470
X114935Y79502
X118872Y88392
X120396Y84963
X120142Y96393
X114808Y98933
X115570Y102743
X134366Y105918
X137668Y105918
X135890Y109601
X127127Y107950
X142240Y106299
X129286Y117983
X133096Y120650
X133985Y118110
X128016Y82169
X133477Y87122
X126746Y73914
X152400Y72390
X147701Y70485
X147193Y74168
X145669Y79629
X145669Y77089
X145034Y84709
X148717Y88646
X106045Y109220
X120015Y90805
X121793Y90678
X118745Y94234
X120650Y92329
X151384Y123952
X150876Y120015
X139827Y106299
X141224Y113665
X133985Y115697
X125603Y88519
X128778Y95758
X130429Y95758
X127889Y99568
X124587Y105537
X134366Y81280
X114173Y93091
X110363Y68580
X116459Y68580
X119634Y73660
X126365Y80010
X125349Y101981
X122936Y100838
X116459Y95123
X109855Y98933
X106426Y76708
X129794Y114808
X145266Y123809
X145740Y97409
X148463Y105791
X114277Y122428
X110109Y122555
X125194Y123063
X114808Y118872
X118745Y118999
X132588Y117856
X140335Y114173
X146050Y114427
X146939Y114046
X142367Y123698
X142240Y114300
X144780Y98679
X144907Y111633
X129286Y93091
X112522Y93980
X111252Y93980
X125222Y91440
X147828Y113919
X146840Y102870
X146840Y89535
X125222Y106426
X110998Y78105
X126619Y82677
X113284Y81153
X135989Y83947
X135636Y93091
X147955Y94996
X147933Y103019
X132080Y99314
X148463Y102235
X148463Y96901
X135636Y92329
X148971Y101473
X148844Y94996
X128016Y91059
X128524Y92583
X129921Y89916
X117856Y94460
X135636Y93853
X149479Y95758
X149479Y100838
X135128Y101473
X131953Y100584
X131981Y103759
X127254Y88773
X143002Y85090
X134747Y82677
X145415Y73787
X135383Y83313
X144399Y74267
X123571Y116967
X125222Y95758
X125476Y116967
X130937Y99314
X108458Y121539
X128397Y101854
X135636Y94615
X149987Y96393
X149987Y98044
X145034Y117094
X137160Y91539
X144272Y92837
X144272Y98044
X130048Y91666
X108204Y106299
X130810Y89408
X108839Y107315
X145415Y119888
X134874Y89154
X143764Y88265
X143764Y98679
X134239Y89916
X147320Y88900
X147320Y104013
X126111Y116332
X126492Y94869
X133604Y111633
X132461Y102362
X126492Y112014
X130429Y103124
X141859Y108204
X133096Y100330
X147066Y84709
X146431Y88392
X146304Y96393
X133477Y96393
X111633Y118110
X128905Y101247
X126492Y110871
X125857Y93980
X127508Y95885
X135636Y95786
X12192Y27813
X9525Y18542
X23495Y38227
X16129Y34925
X144117Y79629
X141351Y79629
X150876Y115697
X147828Y105283
X105791Y99187
X147320Y79883
X149098Y79756
X16129Y33401
X9906Y31877
X14605Y77470
X11557Y42164
X29337Y41021
X5334Y35052
X23876Y48260
X23876Y47498
X14097Y47879
X6985Y51308
X9906Y53467
X13462Y54483
X9144Y57785
X15621Y16129
X15621Y10287
X14986Y7239
X6604Y7239
X14859Y18034
X889Y25908
X7239Y25908
X8890Y36195
X19558Y19558
X25400Y19812
X19558Y25400
X19558Y30861
X30480Y31623
X34798Y19431
X28702Y13716
X19812Y12700
X49149Y7239
X38862Y4318
X22733Y10160
X35560Y7620
X6731Y19177
X7620Y21590
X3810Y21590
X3810Y19050
X40259Y52451
X38989Y51943
X38989Y48387
X36195Y48387
X36195Y51943
X36830Y58674
X41910Y58674
X43180Y57531
X45974Y54864
X43561Y53086
X45720Y52705
X48260Y49530
X36576Y41148
X41021Y24003
X45466Y24003
X39370Y31750
X34671Y31496
X23241Y25527
X26162Y26924
X27813Y26924
X32004Y27305
X31750Y37338
X31750Y36322
X36068Y43434
X19431Y40132
X15240Y40132
X15240Y38227
X18796Y38227
X15875Y36322
X11303Y37211
X17399Y44323
X15875Y46355
X18415Y48895
X12065Y45466
X8890Y45720
X8890Y48260
X5080Y57150
X5080Y50800
X12954Y58928
X15621Y57658
X10795Y61722
X15240Y61722
X25273Y61849
X6350Y59690
X33655Y61722
X25400Y54610
X35941Y54737
X44450Y60960
X49530Y51308
X39370Y34290
X35814Y34290
X42926Y33528
X42926Y37719
X43307Y41910
X43307Y44450
X20320Y44450
X25146Y42799
X26543Y44069
X27051Y45212
X46736Y42418
X46228Y36830
X42926Y35687
X48768Y28829
X36449Y14478
X38862Y15621
X38481Y9652
X33401Y10160
X32385Y4318
X41402Y2540
X27305Y6223
X19685Y6477
X17018Y2032
X22225Y2540
X27305Y2540
X32385Y2413
X19939Y10033
X14986Y12573
X3810Y6350
X1270Y7620
X6350Y12700
X3937Y25400
X762Y33655
X889Y29845
X2921Y36830
X3048Y39370
X7493Y10033
X14605Y10160
X12319Y12192
X16256Y21082
X17780Y17653
X17526Y29083
X12192Y31623
X12954Y35433
X31750Y38608
X35052Y38608
X33274Y42291
X24511Y40640
X39624Y38989
X26670Y50673
X30480Y53340
X31369Y50800
X25400Y14859
X30861Y19812
X24130Y6604
X49784Y5080
X45085Y3175
X44577Y6858
X43053Y12319
X43053Y9779
X42418Y17399
X46101Y21336
X3429Y41910
X17399Y23495
X19177Y23368
X16129Y26924
X18034Y25019
X48768Y56642
X48260Y52705
X37211Y38989
X38608Y46355
X31369Y48387
X22987Y21209
X26162Y28448
X27813Y28448
X25273Y32258
X21971Y38227
X31750Y13970
X11557Y25781
X7747Y1270
X13843Y1270
X17018Y6350
X23749Y12700
X22733Y34671
X20320Y33528
X13843Y27813
X7239Y31623
X3810Y9398
X27178Y47498
X42650Y56499
X43124Y30099
X45847Y38481
X11661Y55118
X7493Y55245
X22578Y55753
X12192Y51562
X16129Y51689
X29972Y50546
X37719Y46863
X43434Y47117
X44323Y46736
X39751Y56388
X39624Y46990
X42164Y31369
X42291Y44323
X26670Y25781
X9906Y26670
X8636Y26670
X22606Y24130
X45212Y46609
X44224Y35560
X44224Y22225
X22606Y39116
X8382Y10795
X24003Y15367
X10668Y13843
X33373Y16637
X33020Y25781
X45339Y27686
X45317Y35709
X29464Y32004
X45847Y34925
X45847Y29591
X33020Y25019
X46355Y34163
X46228Y27686
X25400Y23749
X25908Y25273
X27305Y22606
X15240Y27150
X33020Y26543
X46863Y28448
X46863Y33528
X32512Y34163
X29337Y33274
X29365Y36449
X24638Y21463
X40386Y17780
X32131Y15367
X42799Y6477
X32767Y16003
X41783Y6957
X20955Y49657
X22606Y28448
X22860Y49657
X28321Y32004
X5842Y54229
X25781Y34544
X33020Y27305
X47371Y29083
X47371Y30734
X42418Y49784
X34544Y24229
X41656Y25527
X27432Y24356
X5588Y38989
X28194Y22098
X6223Y40005
X42799Y52578
X32258Y21844
X41148Y20955
X41148Y31369
X31623Y22606
X44704Y21590
X44704Y36703
X138811Y119253
T9
X146558Y115824
X149225Y48514
X149225Y51308
X43942Y48514
X97917Y118618
X97917Y115824
X147066Y118745
X95250Y115824
X96520Y49911
X147828Y49911
X95758Y51435
X95250Y48514
X147066Y51435
X95758Y118745
X45212Y117221
X96520Y117221
X97917Y48514
X97917Y51308
X147828Y117221
X45212Y49911
X44450Y51435
X46609Y48514
X46609Y51308
X43942Y115824
X46609Y118618
X44450Y118745
X46609Y115824
X146558Y48514
X149225Y118618
X149225Y115824
M30