G04 EAGLE Gerber RS-274X export*
G75*
%MOMM*%
%FSLAX34Y34*%
%LPD*%
%INSoldermask Bottom*%
%IPPOS*%
%AMOC8*
5,1,8,0,0,1.08239X$1,22.5*%
G01*
%ADD10C,2.082800*%
%ADD11C,1.203200*%
%ADD12C,2.133600*%
%ADD13R,2.133600X2.133600*%
%ADD14R,0.838200X1.473200*%
%ADD15C,3.203200*%
%ADD16C,1.473200*%
%ADD17R,1.473200X0.838200*%
%ADD18C,0.853200*%
%ADD19R,1.703200X4.203200*%
%ADD20C,3.505200*%
%ADD21C,1.270000*%
%ADD22C,1.703200*%

G36*
X1065595Y811542D02*
X1065595Y811542D01*
X1065661Y811544D01*
X1065704Y811562D01*
X1065751Y811570D01*
X1065808Y811604D01*
X1065868Y811629D01*
X1065903Y811660D01*
X1065944Y811685D01*
X1065986Y811736D01*
X1066034Y811780D01*
X1066056Y811822D01*
X1066085Y811859D01*
X1066106Y811921D01*
X1066137Y811980D01*
X1066145Y812034D01*
X1066157Y812071D01*
X1066156Y812111D01*
X1066164Y812165D01*
X1066164Y815975D01*
X1066153Y816040D01*
X1066151Y816106D01*
X1066133Y816149D01*
X1066125Y816196D01*
X1066091Y816253D01*
X1066066Y816313D01*
X1066035Y816348D01*
X1066010Y816389D01*
X1065959Y816431D01*
X1065915Y816479D01*
X1065873Y816501D01*
X1065836Y816530D01*
X1065774Y816551D01*
X1065715Y816582D01*
X1065661Y816590D01*
X1065624Y816602D01*
X1065584Y816601D01*
X1065530Y816609D01*
X1062990Y816609D01*
X1062925Y816598D01*
X1062859Y816596D01*
X1062816Y816578D01*
X1062769Y816570D01*
X1062712Y816536D01*
X1062652Y816511D01*
X1062617Y816480D01*
X1062576Y816455D01*
X1062535Y816404D01*
X1062486Y816360D01*
X1062464Y816318D01*
X1062435Y816281D01*
X1062414Y816219D01*
X1062383Y816160D01*
X1062375Y816106D01*
X1062363Y816069D01*
X1062363Y816065D01*
X1062363Y816064D01*
X1062364Y816029D01*
X1062356Y815975D01*
X1062356Y812165D01*
X1062367Y812100D01*
X1062369Y812034D01*
X1062387Y811991D01*
X1062395Y811944D01*
X1062429Y811887D01*
X1062454Y811827D01*
X1062485Y811792D01*
X1062510Y811751D01*
X1062561Y811710D01*
X1062605Y811661D01*
X1062647Y811639D01*
X1062684Y811610D01*
X1062746Y811589D01*
X1062805Y811558D01*
X1062859Y811550D01*
X1062896Y811538D01*
X1062936Y811539D01*
X1062990Y811531D01*
X1065530Y811531D01*
X1065595Y811542D01*
G37*
G36*
X552515Y811542D02*
X552515Y811542D01*
X552581Y811544D01*
X552624Y811562D01*
X552671Y811570D01*
X552728Y811604D01*
X552788Y811629D01*
X552823Y811660D01*
X552864Y811685D01*
X552906Y811736D01*
X552954Y811780D01*
X552976Y811822D01*
X553005Y811859D01*
X553026Y811921D01*
X553057Y811980D01*
X553065Y812034D01*
X553077Y812071D01*
X553076Y812111D01*
X553084Y812165D01*
X553084Y815975D01*
X553073Y816040D01*
X553071Y816106D01*
X553053Y816149D01*
X553045Y816196D01*
X553011Y816253D01*
X552986Y816313D01*
X552955Y816348D01*
X552930Y816389D01*
X552879Y816431D01*
X552835Y816479D01*
X552793Y816501D01*
X552756Y816530D01*
X552694Y816551D01*
X552635Y816582D01*
X552581Y816590D01*
X552544Y816602D01*
X552504Y816601D01*
X552450Y816609D01*
X549910Y816609D01*
X549845Y816598D01*
X549779Y816596D01*
X549736Y816578D01*
X549689Y816570D01*
X549632Y816536D01*
X549572Y816511D01*
X549537Y816480D01*
X549496Y816455D01*
X549455Y816404D01*
X549406Y816360D01*
X549384Y816318D01*
X549355Y816281D01*
X549334Y816219D01*
X549303Y816160D01*
X549295Y816106D01*
X549283Y816069D01*
X549283Y816065D01*
X549283Y816064D01*
X549284Y816029D01*
X549276Y815975D01*
X549276Y812165D01*
X549287Y812100D01*
X549289Y812034D01*
X549307Y811991D01*
X549315Y811944D01*
X549349Y811887D01*
X549374Y811827D01*
X549405Y811792D01*
X549430Y811751D01*
X549481Y811710D01*
X549525Y811661D01*
X549567Y811639D01*
X549604Y811610D01*
X549666Y811589D01*
X549725Y811558D01*
X549779Y811550D01*
X549816Y811538D01*
X549856Y811539D01*
X549910Y811531D01*
X552450Y811531D01*
X552515Y811542D01*
G37*
G36*
X39435Y811542D02*
X39435Y811542D01*
X39501Y811544D01*
X39544Y811562D01*
X39591Y811570D01*
X39648Y811604D01*
X39708Y811629D01*
X39743Y811660D01*
X39784Y811685D01*
X39826Y811736D01*
X39874Y811780D01*
X39896Y811822D01*
X39925Y811859D01*
X39946Y811921D01*
X39977Y811980D01*
X39985Y812034D01*
X39997Y812071D01*
X39996Y812111D01*
X40004Y812165D01*
X40004Y815975D01*
X39993Y816040D01*
X39991Y816106D01*
X39973Y816149D01*
X39965Y816196D01*
X39931Y816253D01*
X39906Y816313D01*
X39875Y816348D01*
X39850Y816389D01*
X39799Y816431D01*
X39755Y816479D01*
X39713Y816501D01*
X39676Y816530D01*
X39614Y816551D01*
X39555Y816582D01*
X39501Y816590D01*
X39464Y816602D01*
X39424Y816601D01*
X39370Y816609D01*
X36830Y816609D01*
X36765Y816598D01*
X36699Y816596D01*
X36656Y816578D01*
X36609Y816570D01*
X36552Y816536D01*
X36492Y816511D01*
X36457Y816480D01*
X36416Y816455D01*
X36375Y816404D01*
X36326Y816360D01*
X36304Y816318D01*
X36275Y816281D01*
X36254Y816219D01*
X36223Y816160D01*
X36215Y816106D01*
X36203Y816069D01*
X36203Y816065D01*
X36203Y816064D01*
X36204Y816029D01*
X36196Y815975D01*
X36196Y812165D01*
X36207Y812100D01*
X36209Y812034D01*
X36227Y811991D01*
X36235Y811944D01*
X36269Y811887D01*
X36294Y811827D01*
X36325Y811792D01*
X36350Y811751D01*
X36401Y811710D01*
X36445Y811661D01*
X36487Y811639D01*
X36524Y811610D01*
X36586Y811589D01*
X36645Y811558D01*
X36699Y811550D01*
X36736Y811538D01*
X36776Y811539D01*
X36830Y811531D01*
X39370Y811531D01*
X39435Y811542D01*
G37*
G36*
X1065595Y784872D02*
X1065595Y784872D01*
X1065661Y784874D01*
X1065704Y784892D01*
X1065751Y784900D01*
X1065808Y784934D01*
X1065868Y784959D01*
X1065903Y784990D01*
X1065944Y785015D01*
X1065986Y785066D01*
X1066034Y785110D01*
X1066056Y785152D01*
X1066085Y785189D01*
X1066106Y785251D01*
X1066137Y785310D01*
X1066145Y785364D01*
X1066157Y785401D01*
X1066156Y785441D01*
X1066164Y785495D01*
X1066164Y789305D01*
X1066153Y789370D01*
X1066151Y789436D01*
X1066133Y789479D01*
X1066125Y789526D01*
X1066091Y789583D01*
X1066066Y789643D01*
X1066035Y789678D01*
X1066010Y789719D01*
X1065959Y789761D01*
X1065915Y789809D01*
X1065873Y789831D01*
X1065836Y789860D01*
X1065774Y789881D01*
X1065715Y789912D01*
X1065661Y789920D01*
X1065624Y789932D01*
X1065584Y789931D01*
X1065530Y789939D01*
X1062990Y789939D01*
X1062925Y789928D01*
X1062859Y789926D01*
X1062816Y789908D01*
X1062769Y789900D01*
X1062712Y789866D01*
X1062652Y789841D01*
X1062617Y789810D01*
X1062576Y789785D01*
X1062535Y789734D01*
X1062486Y789690D01*
X1062464Y789648D01*
X1062435Y789611D01*
X1062414Y789549D01*
X1062383Y789490D01*
X1062375Y789436D01*
X1062363Y789399D01*
X1062363Y789395D01*
X1062363Y789394D01*
X1062364Y789359D01*
X1062356Y789305D01*
X1062356Y785495D01*
X1062367Y785430D01*
X1062369Y785364D01*
X1062387Y785321D01*
X1062395Y785274D01*
X1062429Y785217D01*
X1062454Y785157D01*
X1062485Y785122D01*
X1062510Y785081D01*
X1062561Y785040D01*
X1062605Y784991D01*
X1062647Y784969D01*
X1062684Y784940D01*
X1062746Y784919D01*
X1062805Y784888D01*
X1062859Y784880D01*
X1062896Y784868D01*
X1062936Y784869D01*
X1062990Y784861D01*
X1065530Y784861D01*
X1065595Y784872D01*
G37*
G36*
X39435Y784872D02*
X39435Y784872D01*
X39501Y784874D01*
X39544Y784892D01*
X39591Y784900D01*
X39648Y784934D01*
X39708Y784959D01*
X39743Y784990D01*
X39784Y785015D01*
X39826Y785066D01*
X39874Y785110D01*
X39896Y785152D01*
X39925Y785189D01*
X39946Y785251D01*
X39977Y785310D01*
X39985Y785364D01*
X39997Y785401D01*
X39996Y785441D01*
X40004Y785495D01*
X40004Y789305D01*
X39993Y789370D01*
X39991Y789436D01*
X39973Y789479D01*
X39965Y789526D01*
X39931Y789583D01*
X39906Y789643D01*
X39875Y789678D01*
X39850Y789719D01*
X39799Y789761D01*
X39755Y789809D01*
X39713Y789831D01*
X39676Y789860D01*
X39614Y789881D01*
X39555Y789912D01*
X39501Y789920D01*
X39464Y789932D01*
X39424Y789931D01*
X39370Y789939D01*
X36830Y789939D01*
X36765Y789928D01*
X36699Y789926D01*
X36656Y789908D01*
X36609Y789900D01*
X36552Y789866D01*
X36492Y789841D01*
X36457Y789810D01*
X36416Y789785D01*
X36375Y789734D01*
X36326Y789690D01*
X36304Y789648D01*
X36275Y789611D01*
X36254Y789549D01*
X36223Y789490D01*
X36215Y789436D01*
X36203Y789399D01*
X36203Y789395D01*
X36203Y789394D01*
X36204Y789359D01*
X36196Y789305D01*
X36196Y785495D01*
X36207Y785430D01*
X36209Y785364D01*
X36227Y785321D01*
X36235Y785274D01*
X36269Y785217D01*
X36294Y785157D01*
X36325Y785122D01*
X36350Y785081D01*
X36401Y785040D01*
X36445Y784991D01*
X36487Y784969D01*
X36524Y784940D01*
X36586Y784919D01*
X36645Y784888D01*
X36699Y784880D01*
X36736Y784868D01*
X36776Y784869D01*
X36830Y784861D01*
X39370Y784861D01*
X39435Y784872D01*
G37*
G36*
X552515Y784872D02*
X552515Y784872D01*
X552581Y784874D01*
X552624Y784892D01*
X552671Y784900D01*
X552728Y784934D01*
X552788Y784959D01*
X552823Y784990D01*
X552864Y785015D01*
X552906Y785066D01*
X552954Y785110D01*
X552976Y785152D01*
X553005Y785189D01*
X553026Y785251D01*
X553057Y785310D01*
X553065Y785364D01*
X553077Y785401D01*
X553076Y785441D01*
X553084Y785495D01*
X553084Y789305D01*
X553073Y789370D01*
X553071Y789436D01*
X553053Y789479D01*
X553045Y789526D01*
X553011Y789583D01*
X552986Y789643D01*
X552955Y789678D01*
X552930Y789719D01*
X552879Y789761D01*
X552835Y789809D01*
X552793Y789831D01*
X552756Y789860D01*
X552694Y789881D01*
X552635Y789912D01*
X552581Y789920D01*
X552544Y789932D01*
X552504Y789931D01*
X552450Y789939D01*
X549910Y789939D01*
X549845Y789928D01*
X549779Y789926D01*
X549736Y789908D01*
X549689Y789900D01*
X549632Y789866D01*
X549572Y789841D01*
X549537Y789810D01*
X549496Y789785D01*
X549455Y789734D01*
X549406Y789690D01*
X549384Y789648D01*
X549355Y789611D01*
X549334Y789549D01*
X549303Y789490D01*
X549295Y789436D01*
X549283Y789399D01*
X549283Y789395D01*
X549283Y789394D01*
X549284Y789359D01*
X549276Y789305D01*
X549276Y785495D01*
X549287Y785430D01*
X549289Y785364D01*
X549307Y785321D01*
X549315Y785274D01*
X549349Y785217D01*
X549374Y785157D01*
X549405Y785122D01*
X549430Y785081D01*
X549481Y785040D01*
X549525Y784991D01*
X549567Y784969D01*
X549604Y784940D01*
X549666Y784919D01*
X549725Y784888D01*
X549779Y784880D01*
X549816Y784868D01*
X549856Y784869D01*
X549910Y784861D01*
X552450Y784861D01*
X552515Y784872D01*
G37*
G36*
X1065595Y138442D02*
X1065595Y138442D01*
X1065661Y138444D01*
X1065704Y138462D01*
X1065751Y138470D01*
X1065808Y138504D01*
X1065868Y138529D01*
X1065903Y138560D01*
X1065944Y138585D01*
X1065986Y138636D01*
X1066034Y138680D01*
X1066056Y138722D01*
X1066085Y138759D01*
X1066106Y138821D01*
X1066137Y138880D01*
X1066145Y138934D01*
X1066157Y138971D01*
X1066156Y139011D01*
X1066164Y139065D01*
X1066164Y142875D01*
X1066153Y142940D01*
X1066151Y143006D01*
X1066133Y143049D01*
X1066125Y143096D01*
X1066091Y143153D01*
X1066066Y143213D01*
X1066035Y143248D01*
X1066010Y143289D01*
X1065959Y143331D01*
X1065915Y143379D01*
X1065873Y143401D01*
X1065836Y143430D01*
X1065774Y143451D01*
X1065715Y143482D01*
X1065661Y143490D01*
X1065624Y143502D01*
X1065584Y143501D01*
X1065530Y143509D01*
X1062990Y143509D01*
X1062925Y143498D01*
X1062859Y143496D01*
X1062816Y143478D01*
X1062769Y143470D01*
X1062712Y143436D01*
X1062652Y143411D01*
X1062617Y143380D01*
X1062576Y143355D01*
X1062535Y143304D01*
X1062486Y143260D01*
X1062464Y143218D01*
X1062435Y143181D01*
X1062414Y143119D01*
X1062383Y143060D01*
X1062375Y143006D01*
X1062363Y142969D01*
X1062363Y142965D01*
X1062363Y142964D01*
X1062364Y142929D01*
X1062356Y142875D01*
X1062356Y139065D01*
X1062367Y139000D01*
X1062369Y138934D01*
X1062387Y138891D01*
X1062395Y138844D01*
X1062429Y138787D01*
X1062454Y138727D01*
X1062485Y138692D01*
X1062510Y138651D01*
X1062561Y138610D01*
X1062605Y138561D01*
X1062647Y138539D01*
X1062684Y138510D01*
X1062746Y138489D01*
X1062805Y138458D01*
X1062859Y138450D01*
X1062896Y138438D01*
X1062936Y138439D01*
X1062990Y138431D01*
X1065530Y138431D01*
X1065595Y138442D01*
G37*
G36*
X552515Y138442D02*
X552515Y138442D01*
X552581Y138444D01*
X552624Y138462D01*
X552671Y138470D01*
X552728Y138504D01*
X552788Y138529D01*
X552823Y138560D01*
X552864Y138585D01*
X552906Y138636D01*
X552954Y138680D01*
X552976Y138722D01*
X553005Y138759D01*
X553026Y138821D01*
X553057Y138880D01*
X553065Y138934D01*
X553077Y138971D01*
X553076Y139011D01*
X553084Y139065D01*
X553084Y142875D01*
X553073Y142940D01*
X553071Y143006D01*
X553053Y143049D01*
X553045Y143096D01*
X553011Y143153D01*
X552986Y143213D01*
X552955Y143248D01*
X552930Y143289D01*
X552879Y143331D01*
X552835Y143379D01*
X552793Y143401D01*
X552756Y143430D01*
X552694Y143451D01*
X552635Y143482D01*
X552581Y143490D01*
X552544Y143502D01*
X552504Y143501D01*
X552450Y143509D01*
X549910Y143509D01*
X549845Y143498D01*
X549779Y143496D01*
X549736Y143478D01*
X549689Y143470D01*
X549632Y143436D01*
X549572Y143411D01*
X549537Y143380D01*
X549496Y143355D01*
X549455Y143304D01*
X549406Y143260D01*
X549384Y143218D01*
X549355Y143181D01*
X549334Y143119D01*
X549303Y143060D01*
X549295Y143006D01*
X549283Y142969D01*
X549283Y142965D01*
X549283Y142964D01*
X549284Y142929D01*
X549276Y142875D01*
X549276Y139065D01*
X549287Y139000D01*
X549289Y138934D01*
X549307Y138891D01*
X549315Y138844D01*
X549349Y138787D01*
X549374Y138727D01*
X549405Y138692D01*
X549430Y138651D01*
X549481Y138610D01*
X549525Y138561D01*
X549567Y138539D01*
X549604Y138510D01*
X549666Y138489D01*
X549725Y138458D01*
X549779Y138450D01*
X549816Y138438D01*
X549856Y138439D01*
X549910Y138431D01*
X552450Y138431D01*
X552515Y138442D01*
G37*
G36*
X39435Y138442D02*
X39435Y138442D01*
X39501Y138444D01*
X39544Y138462D01*
X39591Y138470D01*
X39648Y138504D01*
X39708Y138529D01*
X39743Y138560D01*
X39784Y138585D01*
X39826Y138636D01*
X39874Y138680D01*
X39896Y138722D01*
X39925Y138759D01*
X39946Y138821D01*
X39977Y138880D01*
X39985Y138934D01*
X39997Y138971D01*
X39996Y139011D01*
X40004Y139065D01*
X40004Y142875D01*
X39993Y142940D01*
X39991Y143006D01*
X39973Y143049D01*
X39965Y143096D01*
X39931Y143153D01*
X39906Y143213D01*
X39875Y143248D01*
X39850Y143289D01*
X39799Y143331D01*
X39755Y143379D01*
X39713Y143401D01*
X39676Y143430D01*
X39614Y143451D01*
X39555Y143482D01*
X39501Y143490D01*
X39464Y143502D01*
X39424Y143501D01*
X39370Y143509D01*
X36830Y143509D01*
X36765Y143498D01*
X36699Y143496D01*
X36656Y143478D01*
X36609Y143470D01*
X36552Y143436D01*
X36492Y143411D01*
X36457Y143380D01*
X36416Y143355D01*
X36375Y143304D01*
X36326Y143260D01*
X36304Y143218D01*
X36275Y143181D01*
X36254Y143119D01*
X36223Y143060D01*
X36215Y143006D01*
X36203Y142969D01*
X36203Y142965D01*
X36203Y142964D01*
X36204Y142929D01*
X36196Y142875D01*
X36196Y139065D01*
X36207Y139000D01*
X36209Y138934D01*
X36227Y138891D01*
X36235Y138844D01*
X36269Y138787D01*
X36294Y138727D01*
X36325Y138692D01*
X36350Y138651D01*
X36401Y138610D01*
X36445Y138561D01*
X36487Y138539D01*
X36524Y138510D01*
X36586Y138489D01*
X36645Y138458D01*
X36699Y138450D01*
X36736Y138438D01*
X36776Y138439D01*
X36830Y138431D01*
X39370Y138431D01*
X39435Y138442D01*
G37*
G36*
X552515Y111772D02*
X552515Y111772D01*
X552581Y111774D01*
X552624Y111792D01*
X552671Y111800D01*
X552728Y111834D01*
X552788Y111859D01*
X552823Y111890D01*
X552864Y111915D01*
X552906Y111966D01*
X552954Y112010D01*
X552976Y112052D01*
X553005Y112089D01*
X553026Y112151D01*
X553057Y112210D01*
X553065Y112264D01*
X553077Y112301D01*
X553076Y112341D01*
X553084Y112395D01*
X553084Y116205D01*
X553073Y116270D01*
X553071Y116336D01*
X553053Y116379D01*
X553045Y116426D01*
X553011Y116483D01*
X552986Y116543D01*
X552955Y116578D01*
X552930Y116619D01*
X552879Y116661D01*
X552835Y116709D01*
X552793Y116731D01*
X552756Y116760D01*
X552694Y116781D01*
X552635Y116812D01*
X552581Y116820D01*
X552544Y116832D01*
X552504Y116831D01*
X552450Y116839D01*
X549910Y116839D01*
X549845Y116828D01*
X549779Y116826D01*
X549736Y116808D01*
X549689Y116800D01*
X549632Y116766D01*
X549572Y116741D01*
X549537Y116710D01*
X549496Y116685D01*
X549455Y116634D01*
X549406Y116590D01*
X549384Y116548D01*
X549355Y116511D01*
X549334Y116449D01*
X549303Y116390D01*
X549295Y116336D01*
X549283Y116299D01*
X549283Y116295D01*
X549283Y116294D01*
X549284Y116259D01*
X549276Y116205D01*
X549276Y112395D01*
X549287Y112330D01*
X549289Y112264D01*
X549307Y112221D01*
X549315Y112174D01*
X549349Y112117D01*
X549374Y112057D01*
X549405Y112022D01*
X549430Y111981D01*
X549481Y111940D01*
X549525Y111891D01*
X549567Y111869D01*
X549604Y111840D01*
X549666Y111819D01*
X549725Y111788D01*
X549779Y111780D01*
X549816Y111768D01*
X549856Y111769D01*
X549910Y111761D01*
X552450Y111761D01*
X552515Y111772D01*
G37*
G36*
X1065595Y111772D02*
X1065595Y111772D01*
X1065661Y111774D01*
X1065704Y111792D01*
X1065751Y111800D01*
X1065808Y111834D01*
X1065868Y111859D01*
X1065903Y111890D01*
X1065944Y111915D01*
X1065986Y111966D01*
X1066034Y112010D01*
X1066056Y112052D01*
X1066085Y112089D01*
X1066106Y112151D01*
X1066137Y112210D01*
X1066145Y112264D01*
X1066157Y112301D01*
X1066156Y112341D01*
X1066164Y112395D01*
X1066164Y116205D01*
X1066153Y116270D01*
X1066151Y116336D01*
X1066133Y116379D01*
X1066125Y116426D01*
X1066091Y116483D01*
X1066066Y116543D01*
X1066035Y116578D01*
X1066010Y116619D01*
X1065959Y116661D01*
X1065915Y116709D01*
X1065873Y116731D01*
X1065836Y116760D01*
X1065774Y116781D01*
X1065715Y116812D01*
X1065661Y116820D01*
X1065624Y116832D01*
X1065584Y116831D01*
X1065530Y116839D01*
X1062990Y116839D01*
X1062925Y116828D01*
X1062859Y116826D01*
X1062816Y116808D01*
X1062769Y116800D01*
X1062712Y116766D01*
X1062652Y116741D01*
X1062617Y116710D01*
X1062576Y116685D01*
X1062535Y116634D01*
X1062486Y116590D01*
X1062464Y116548D01*
X1062435Y116511D01*
X1062414Y116449D01*
X1062383Y116390D01*
X1062375Y116336D01*
X1062363Y116299D01*
X1062363Y116295D01*
X1062363Y116294D01*
X1062364Y116259D01*
X1062356Y116205D01*
X1062356Y112395D01*
X1062367Y112330D01*
X1062369Y112264D01*
X1062387Y112221D01*
X1062395Y112174D01*
X1062429Y112117D01*
X1062454Y112057D01*
X1062485Y112022D01*
X1062510Y111981D01*
X1062561Y111940D01*
X1062605Y111891D01*
X1062647Y111869D01*
X1062684Y111840D01*
X1062746Y111819D01*
X1062805Y111788D01*
X1062859Y111780D01*
X1062896Y111768D01*
X1062936Y111769D01*
X1062990Y111761D01*
X1065530Y111761D01*
X1065595Y111772D01*
G37*
G36*
X39435Y111772D02*
X39435Y111772D01*
X39501Y111774D01*
X39544Y111792D01*
X39591Y111800D01*
X39648Y111834D01*
X39708Y111859D01*
X39743Y111890D01*
X39784Y111915D01*
X39826Y111966D01*
X39874Y112010D01*
X39896Y112052D01*
X39925Y112089D01*
X39946Y112151D01*
X39977Y112210D01*
X39985Y112264D01*
X39997Y112301D01*
X39996Y112341D01*
X40004Y112395D01*
X40004Y116205D01*
X39993Y116270D01*
X39991Y116336D01*
X39973Y116379D01*
X39965Y116426D01*
X39931Y116483D01*
X39906Y116543D01*
X39875Y116578D01*
X39850Y116619D01*
X39799Y116661D01*
X39755Y116709D01*
X39713Y116731D01*
X39676Y116760D01*
X39614Y116781D01*
X39555Y116812D01*
X39501Y116820D01*
X39464Y116832D01*
X39424Y116831D01*
X39370Y116839D01*
X36830Y116839D01*
X36765Y116828D01*
X36699Y116826D01*
X36656Y116808D01*
X36609Y116800D01*
X36552Y116766D01*
X36492Y116741D01*
X36457Y116710D01*
X36416Y116685D01*
X36375Y116634D01*
X36326Y116590D01*
X36304Y116548D01*
X36275Y116511D01*
X36254Y116449D01*
X36223Y116390D01*
X36215Y116336D01*
X36203Y116299D01*
X36203Y116295D01*
X36203Y116294D01*
X36204Y116259D01*
X36196Y116205D01*
X36196Y112395D01*
X36207Y112330D01*
X36209Y112264D01*
X36227Y112221D01*
X36235Y112174D01*
X36269Y112117D01*
X36294Y112057D01*
X36325Y112022D01*
X36350Y111981D01*
X36401Y111940D01*
X36445Y111891D01*
X36487Y111869D01*
X36524Y111840D01*
X36586Y111819D01*
X36645Y111788D01*
X36699Y111780D01*
X36736Y111768D01*
X36776Y111769D01*
X36830Y111761D01*
X39370Y111761D01*
X39435Y111772D01*
G37*
G36*
X1164020Y1200797D02*
X1164020Y1200797D01*
X1164086Y1200799D01*
X1164129Y1200817D01*
X1164176Y1200825D01*
X1164233Y1200859D01*
X1164293Y1200884D01*
X1164328Y1200915D01*
X1164369Y1200940D01*
X1164411Y1200991D01*
X1164459Y1201035D01*
X1164481Y1201077D01*
X1164510Y1201114D01*
X1164531Y1201176D01*
X1164562Y1201235D01*
X1164570Y1201289D01*
X1164582Y1201326D01*
X1164581Y1201366D01*
X1164589Y1201420D01*
X1164589Y1203960D01*
X1164578Y1204025D01*
X1164576Y1204091D01*
X1164558Y1204134D01*
X1164550Y1204181D01*
X1164516Y1204238D01*
X1164491Y1204298D01*
X1164460Y1204333D01*
X1164435Y1204374D01*
X1164384Y1204416D01*
X1164340Y1204464D01*
X1164298Y1204486D01*
X1164261Y1204515D01*
X1164199Y1204536D01*
X1164140Y1204567D01*
X1164086Y1204575D01*
X1164049Y1204587D01*
X1164009Y1204586D01*
X1163955Y1204594D01*
X1160145Y1204594D01*
X1160080Y1204583D01*
X1160014Y1204581D01*
X1159971Y1204563D01*
X1159924Y1204555D01*
X1159867Y1204521D01*
X1159807Y1204496D01*
X1159772Y1204465D01*
X1159731Y1204440D01*
X1159690Y1204389D01*
X1159641Y1204345D01*
X1159619Y1204303D01*
X1159590Y1204266D01*
X1159569Y1204204D01*
X1159538Y1204145D01*
X1159530Y1204091D01*
X1159518Y1204054D01*
X1159518Y1204051D01*
X1159519Y1204014D01*
X1159511Y1203960D01*
X1159511Y1201420D01*
X1159522Y1201355D01*
X1159524Y1201289D01*
X1159542Y1201246D01*
X1159550Y1201199D01*
X1159584Y1201142D01*
X1159609Y1201082D01*
X1159640Y1201047D01*
X1159665Y1201006D01*
X1159716Y1200965D01*
X1159760Y1200916D01*
X1159802Y1200894D01*
X1159839Y1200865D01*
X1159901Y1200844D01*
X1159960Y1200813D01*
X1160014Y1200805D01*
X1160051Y1200793D01*
X1160091Y1200794D01*
X1160145Y1200786D01*
X1163955Y1200786D01*
X1164020Y1200797D01*
G37*
G36*
X137860Y1200797D02*
X137860Y1200797D01*
X137926Y1200799D01*
X137969Y1200817D01*
X138016Y1200825D01*
X138073Y1200859D01*
X138133Y1200884D01*
X138168Y1200915D01*
X138209Y1200940D01*
X138251Y1200991D01*
X138299Y1201035D01*
X138321Y1201077D01*
X138350Y1201114D01*
X138371Y1201176D01*
X138402Y1201235D01*
X138410Y1201289D01*
X138422Y1201326D01*
X138421Y1201366D01*
X138429Y1201420D01*
X138429Y1203960D01*
X138418Y1204025D01*
X138416Y1204091D01*
X138398Y1204134D01*
X138390Y1204181D01*
X138356Y1204238D01*
X138331Y1204298D01*
X138300Y1204333D01*
X138275Y1204374D01*
X138224Y1204416D01*
X138180Y1204464D01*
X138138Y1204486D01*
X138101Y1204515D01*
X138039Y1204536D01*
X137980Y1204567D01*
X137926Y1204575D01*
X137889Y1204587D01*
X137849Y1204586D01*
X137795Y1204594D01*
X133985Y1204594D01*
X133920Y1204583D01*
X133854Y1204581D01*
X133811Y1204563D01*
X133764Y1204555D01*
X133707Y1204521D01*
X133647Y1204496D01*
X133612Y1204465D01*
X133571Y1204440D01*
X133530Y1204389D01*
X133481Y1204345D01*
X133459Y1204303D01*
X133430Y1204266D01*
X133409Y1204204D01*
X133378Y1204145D01*
X133370Y1204091D01*
X133358Y1204054D01*
X133358Y1204051D01*
X133359Y1204014D01*
X133351Y1203960D01*
X133351Y1201420D01*
X133362Y1201355D01*
X133364Y1201289D01*
X133382Y1201246D01*
X133390Y1201199D01*
X133424Y1201142D01*
X133449Y1201082D01*
X133480Y1201047D01*
X133505Y1201006D01*
X133556Y1200965D01*
X133600Y1200916D01*
X133642Y1200894D01*
X133679Y1200865D01*
X133741Y1200844D01*
X133800Y1200813D01*
X133854Y1200805D01*
X133891Y1200793D01*
X133931Y1200794D01*
X133985Y1200786D01*
X137795Y1200786D01*
X137860Y1200797D01*
G37*
G36*
X650940Y1200797D02*
X650940Y1200797D01*
X651006Y1200799D01*
X651049Y1200817D01*
X651096Y1200825D01*
X651153Y1200859D01*
X651213Y1200884D01*
X651248Y1200915D01*
X651289Y1200940D01*
X651331Y1200991D01*
X651379Y1201035D01*
X651401Y1201077D01*
X651430Y1201114D01*
X651451Y1201176D01*
X651482Y1201235D01*
X651490Y1201289D01*
X651502Y1201326D01*
X651501Y1201366D01*
X651509Y1201420D01*
X651509Y1203960D01*
X651498Y1204025D01*
X651496Y1204091D01*
X651478Y1204134D01*
X651470Y1204181D01*
X651436Y1204238D01*
X651411Y1204298D01*
X651380Y1204333D01*
X651355Y1204374D01*
X651304Y1204416D01*
X651260Y1204464D01*
X651218Y1204486D01*
X651181Y1204515D01*
X651119Y1204536D01*
X651060Y1204567D01*
X651006Y1204575D01*
X650969Y1204587D01*
X650929Y1204586D01*
X650875Y1204594D01*
X647065Y1204594D01*
X647000Y1204583D01*
X646934Y1204581D01*
X646891Y1204563D01*
X646844Y1204555D01*
X646787Y1204521D01*
X646727Y1204496D01*
X646692Y1204465D01*
X646651Y1204440D01*
X646610Y1204389D01*
X646561Y1204345D01*
X646539Y1204303D01*
X646510Y1204266D01*
X646489Y1204204D01*
X646458Y1204145D01*
X646450Y1204091D01*
X646438Y1204054D01*
X646438Y1204051D01*
X646439Y1204014D01*
X646431Y1203960D01*
X646431Y1201420D01*
X646442Y1201355D01*
X646444Y1201289D01*
X646462Y1201246D01*
X646470Y1201199D01*
X646504Y1201142D01*
X646529Y1201082D01*
X646560Y1201047D01*
X646585Y1201006D01*
X646636Y1200965D01*
X646680Y1200916D01*
X646722Y1200894D01*
X646759Y1200865D01*
X646821Y1200844D01*
X646880Y1200813D01*
X646934Y1200805D01*
X646971Y1200793D01*
X647011Y1200794D01*
X647065Y1200786D01*
X650875Y1200786D01*
X650940Y1200797D01*
G37*
G36*
X972758Y806843D02*
X972758Y806843D01*
X972824Y806845D01*
X972867Y806863D01*
X972914Y806871D01*
X972971Y806905D01*
X973031Y806930D01*
X973066Y806961D01*
X973107Y806986D01*
X973149Y807037D01*
X973197Y807081D01*
X973219Y807123D01*
X973248Y807160D01*
X973269Y807222D01*
X973300Y807281D01*
X973308Y807335D01*
X973320Y807372D01*
X973319Y807412D01*
X973327Y807466D01*
X973327Y810006D01*
X973316Y810071D01*
X973314Y810137D01*
X973296Y810180D01*
X973288Y810227D01*
X973254Y810284D01*
X973229Y810344D01*
X973198Y810379D01*
X973173Y810420D01*
X973122Y810462D01*
X973078Y810510D01*
X973036Y810532D01*
X972999Y810561D01*
X972937Y810582D01*
X972878Y810613D01*
X972824Y810621D01*
X972787Y810633D01*
X972747Y810632D01*
X972693Y810640D01*
X968883Y810640D01*
X968818Y810629D01*
X968752Y810627D01*
X968709Y810609D01*
X968662Y810601D01*
X968605Y810567D01*
X968545Y810542D01*
X968510Y810511D01*
X968469Y810486D01*
X968428Y810435D01*
X968379Y810391D01*
X968357Y810349D01*
X968328Y810312D01*
X968307Y810250D01*
X968276Y810191D01*
X968268Y810137D01*
X968256Y810100D01*
X968256Y810097D01*
X968257Y810060D01*
X968249Y810006D01*
X968249Y807466D01*
X968260Y807401D01*
X968262Y807335D01*
X968280Y807292D01*
X968288Y807245D01*
X968322Y807188D01*
X968347Y807128D01*
X968378Y807093D01*
X968403Y807052D01*
X968454Y807011D01*
X968498Y806962D01*
X968540Y806940D01*
X968577Y806911D01*
X968639Y806890D01*
X968698Y806859D01*
X968752Y806851D01*
X968789Y806839D01*
X968829Y806840D01*
X968883Y806832D01*
X972693Y806832D01*
X972758Y806843D01*
G37*
G36*
X1485838Y806843D02*
X1485838Y806843D01*
X1485904Y806845D01*
X1485947Y806863D01*
X1485994Y806871D01*
X1486051Y806905D01*
X1486111Y806930D01*
X1486146Y806961D01*
X1486187Y806986D01*
X1486229Y807037D01*
X1486277Y807081D01*
X1486299Y807123D01*
X1486328Y807160D01*
X1486349Y807222D01*
X1486380Y807281D01*
X1486388Y807335D01*
X1486400Y807372D01*
X1486399Y807412D01*
X1486407Y807466D01*
X1486407Y810006D01*
X1486396Y810071D01*
X1486394Y810137D01*
X1486376Y810180D01*
X1486368Y810227D01*
X1486334Y810284D01*
X1486309Y810344D01*
X1486278Y810379D01*
X1486253Y810420D01*
X1486202Y810462D01*
X1486158Y810510D01*
X1486116Y810532D01*
X1486079Y810561D01*
X1486017Y810582D01*
X1485958Y810613D01*
X1485904Y810621D01*
X1485867Y810633D01*
X1485827Y810632D01*
X1485773Y810640D01*
X1481963Y810640D01*
X1481898Y810629D01*
X1481832Y810627D01*
X1481789Y810609D01*
X1481742Y810601D01*
X1481685Y810567D01*
X1481625Y810542D01*
X1481590Y810511D01*
X1481549Y810486D01*
X1481508Y810435D01*
X1481459Y810391D01*
X1481437Y810349D01*
X1481408Y810312D01*
X1481387Y810250D01*
X1481356Y810191D01*
X1481348Y810137D01*
X1481336Y810100D01*
X1481336Y810097D01*
X1481337Y810060D01*
X1481329Y810006D01*
X1481329Y807466D01*
X1481340Y807401D01*
X1481342Y807335D01*
X1481360Y807292D01*
X1481368Y807245D01*
X1481402Y807188D01*
X1481427Y807128D01*
X1481458Y807093D01*
X1481483Y807052D01*
X1481534Y807011D01*
X1481578Y806962D01*
X1481620Y806940D01*
X1481657Y806911D01*
X1481719Y806890D01*
X1481778Y806859D01*
X1481832Y806851D01*
X1481869Y806839D01*
X1481909Y806840D01*
X1481963Y806832D01*
X1485773Y806832D01*
X1485838Y806843D01*
G37*
G36*
X459678Y806843D02*
X459678Y806843D01*
X459744Y806845D01*
X459787Y806863D01*
X459834Y806871D01*
X459891Y806905D01*
X459951Y806930D01*
X459986Y806961D01*
X460027Y806986D01*
X460069Y807037D01*
X460117Y807081D01*
X460139Y807123D01*
X460168Y807160D01*
X460189Y807222D01*
X460220Y807281D01*
X460228Y807335D01*
X460240Y807372D01*
X460239Y807412D01*
X460247Y807466D01*
X460247Y810006D01*
X460236Y810071D01*
X460234Y810137D01*
X460216Y810180D01*
X460208Y810227D01*
X460174Y810284D01*
X460149Y810344D01*
X460118Y810379D01*
X460093Y810420D01*
X460042Y810462D01*
X459998Y810510D01*
X459956Y810532D01*
X459919Y810561D01*
X459857Y810582D01*
X459798Y810613D01*
X459744Y810621D01*
X459707Y810633D01*
X459667Y810632D01*
X459613Y810640D01*
X455803Y810640D01*
X455738Y810629D01*
X455672Y810627D01*
X455629Y810609D01*
X455582Y810601D01*
X455525Y810567D01*
X455465Y810542D01*
X455430Y810511D01*
X455389Y810486D01*
X455348Y810435D01*
X455299Y810391D01*
X455277Y810349D01*
X455248Y810312D01*
X455227Y810250D01*
X455196Y810191D01*
X455188Y810137D01*
X455176Y810100D01*
X455176Y810097D01*
X455177Y810060D01*
X455169Y810006D01*
X455169Y807466D01*
X455180Y807401D01*
X455182Y807335D01*
X455200Y807292D01*
X455208Y807245D01*
X455242Y807188D01*
X455267Y807128D01*
X455298Y807093D01*
X455323Y807052D01*
X455374Y807011D01*
X455418Y806962D01*
X455460Y806940D01*
X455497Y806911D01*
X455559Y806890D01*
X455618Y806859D01*
X455672Y806851D01*
X455709Y806839D01*
X455749Y806840D01*
X455803Y806832D01*
X459613Y806832D01*
X459678Y806843D01*
G37*
G36*
X1164020Y527697D02*
X1164020Y527697D01*
X1164086Y527699D01*
X1164129Y527717D01*
X1164176Y527725D01*
X1164233Y527759D01*
X1164293Y527784D01*
X1164328Y527815D01*
X1164369Y527840D01*
X1164411Y527891D01*
X1164459Y527935D01*
X1164481Y527977D01*
X1164510Y528014D01*
X1164531Y528076D01*
X1164562Y528135D01*
X1164570Y528189D01*
X1164582Y528226D01*
X1164581Y528266D01*
X1164589Y528320D01*
X1164589Y530860D01*
X1164578Y530925D01*
X1164576Y530991D01*
X1164558Y531034D01*
X1164550Y531081D01*
X1164516Y531138D01*
X1164491Y531198D01*
X1164460Y531233D01*
X1164435Y531274D01*
X1164384Y531316D01*
X1164340Y531364D01*
X1164298Y531386D01*
X1164261Y531415D01*
X1164199Y531436D01*
X1164140Y531467D01*
X1164086Y531475D01*
X1164049Y531487D01*
X1164009Y531486D01*
X1163955Y531494D01*
X1160145Y531494D01*
X1160080Y531483D01*
X1160014Y531481D01*
X1159971Y531463D01*
X1159924Y531455D01*
X1159867Y531421D01*
X1159807Y531396D01*
X1159772Y531365D01*
X1159731Y531340D01*
X1159690Y531289D01*
X1159641Y531245D01*
X1159619Y531203D01*
X1159590Y531166D01*
X1159569Y531104D01*
X1159538Y531045D01*
X1159530Y530991D01*
X1159518Y530954D01*
X1159518Y530951D01*
X1159519Y530914D01*
X1159511Y530860D01*
X1159511Y528320D01*
X1159522Y528255D01*
X1159524Y528189D01*
X1159542Y528146D01*
X1159550Y528099D01*
X1159584Y528042D01*
X1159609Y527982D01*
X1159640Y527947D01*
X1159665Y527906D01*
X1159716Y527865D01*
X1159760Y527816D01*
X1159802Y527794D01*
X1159839Y527765D01*
X1159901Y527744D01*
X1159960Y527713D01*
X1160014Y527705D01*
X1160051Y527693D01*
X1160091Y527694D01*
X1160145Y527686D01*
X1163955Y527686D01*
X1164020Y527697D01*
G37*
G36*
X650940Y527697D02*
X650940Y527697D01*
X651006Y527699D01*
X651049Y527717D01*
X651096Y527725D01*
X651153Y527759D01*
X651213Y527784D01*
X651248Y527815D01*
X651289Y527840D01*
X651331Y527891D01*
X651379Y527935D01*
X651401Y527977D01*
X651430Y528014D01*
X651451Y528076D01*
X651482Y528135D01*
X651490Y528189D01*
X651502Y528226D01*
X651501Y528266D01*
X651509Y528320D01*
X651509Y530860D01*
X651498Y530925D01*
X651496Y530991D01*
X651478Y531034D01*
X651470Y531081D01*
X651436Y531138D01*
X651411Y531198D01*
X651380Y531233D01*
X651355Y531274D01*
X651304Y531316D01*
X651260Y531364D01*
X651218Y531386D01*
X651181Y531415D01*
X651119Y531436D01*
X651060Y531467D01*
X651006Y531475D01*
X650969Y531487D01*
X650929Y531486D01*
X650875Y531494D01*
X647065Y531494D01*
X647000Y531483D01*
X646934Y531481D01*
X646891Y531463D01*
X646844Y531455D01*
X646787Y531421D01*
X646727Y531396D01*
X646692Y531365D01*
X646651Y531340D01*
X646610Y531289D01*
X646561Y531245D01*
X646539Y531203D01*
X646510Y531166D01*
X646489Y531104D01*
X646458Y531045D01*
X646450Y530991D01*
X646438Y530954D01*
X646438Y530951D01*
X646439Y530914D01*
X646431Y530860D01*
X646431Y528320D01*
X646442Y528255D01*
X646444Y528189D01*
X646462Y528146D01*
X646470Y528099D01*
X646504Y528042D01*
X646529Y527982D01*
X646560Y527947D01*
X646585Y527906D01*
X646636Y527865D01*
X646680Y527816D01*
X646722Y527794D01*
X646759Y527765D01*
X646821Y527744D01*
X646880Y527713D01*
X646934Y527705D01*
X646971Y527693D01*
X647011Y527694D01*
X647065Y527686D01*
X650875Y527686D01*
X650940Y527697D01*
G37*
G36*
X137860Y527697D02*
X137860Y527697D01*
X137926Y527699D01*
X137969Y527717D01*
X138016Y527725D01*
X138073Y527759D01*
X138133Y527784D01*
X138168Y527815D01*
X138209Y527840D01*
X138251Y527891D01*
X138299Y527935D01*
X138321Y527977D01*
X138350Y528014D01*
X138371Y528076D01*
X138402Y528135D01*
X138410Y528189D01*
X138422Y528226D01*
X138421Y528266D01*
X138429Y528320D01*
X138429Y530860D01*
X138418Y530925D01*
X138416Y530991D01*
X138398Y531034D01*
X138390Y531081D01*
X138356Y531138D01*
X138331Y531198D01*
X138300Y531233D01*
X138275Y531274D01*
X138224Y531316D01*
X138180Y531364D01*
X138138Y531386D01*
X138101Y531415D01*
X138039Y531436D01*
X137980Y531467D01*
X137926Y531475D01*
X137889Y531487D01*
X137849Y531486D01*
X137795Y531494D01*
X133985Y531494D01*
X133920Y531483D01*
X133854Y531481D01*
X133811Y531463D01*
X133764Y531455D01*
X133707Y531421D01*
X133647Y531396D01*
X133612Y531365D01*
X133571Y531340D01*
X133530Y531289D01*
X133481Y531245D01*
X133459Y531203D01*
X133430Y531166D01*
X133409Y531104D01*
X133378Y531045D01*
X133370Y530991D01*
X133358Y530954D01*
X133358Y530951D01*
X133359Y530914D01*
X133351Y530860D01*
X133351Y528320D01*
X133362Y528255D01*
X133364Y528189D01*
X133382Y528146D01*
X133390Y528099D01*
X133424Y528042D01*
X133449Y527982D01*
X133480Y527947D01*
X133505Y527906D01*
X133556Y527865D01*
X133600Y527816D01*
X133642Y527794D01*
X133679Y527765D01*
X133741Y527744D01*
X133800Y527713D01*
X133854Y527705D01*
X133891Y527693D01*
X133931Y527694D01*
X133985Y527686D01*
X137795Y527686D01*
X137860Y527697D01*
G37*
G36*
X1485838Y133743D02*
X1485838Y133743D01*
X1485904Y133745D01*
X1485947Y133763D01*
X1485994Y133771D01*
X1486051Y133805D01*
X1486111Y133830D01*
X1486146Y133861D01*
X1486187Y133886D01*
X1486229Y133937D01*
X1486277Y133981D01*
X1486299Y134023D01*
X1486328Y134060D01*
X1486349Y134122D01*
X1486380Y134181D01*
X1486388Y134235D01*
X1486400Y134272D01*
X1486399Y134312D01*
X1486407Y134366D01*
X1486407Y136906D01*
X1486396Y136971D01*
X1486394Y137037D01*
X1486376Y137080D01*
X1486368Y137127D01*
X1486334Y137184D01*
X1486309Y137244D01*
X1486278Y137279D01*
X1486253Y137320D01*
X1486202Y137362D01*
X1486158Y137410D01*
X1486116Y137432D01*
X1486079Y137461D01*
X1486017Y137482D01*
X1485958Y137513D01*
X1485904Y137521D01*
X1485867Y137533D01*
X1485827Y137532D01*
X1485773Y137540D01*
X1481963Y137540D01*
X1481898Y137529D01*
X1481832Y137527D01*
X1481789Y137509D01*
X1481742Y137501D01*
X1481685Y137467D01*
X1481625Y137442D01*
X1481590Y137411D01*
X1481549Y137386D01*
X1481508Y137335D01*
X1481459Y137291D01*
X1481437Y137249D01*
X1481408Y137212D01*
X1481387Y137150D01*
X1481356Y137091D01*
X1481348Y137037D01*
X1481336Y137000D01*
X1481336Y136997D01*
X1481337Y136960D01*
X1481329Y136906D01*
X1481329Y134366D01*
X1481340Y134301D01*
X1481342Y134235D01*
X1481360Y134192D01*
X1481368Y134145D01*
X1481402Y134088D01*
X1481427Y134028D01*
X1481458Y133993D01*
X1481483Y133952D01*
X1481534Y133911D01*
X1481578Y133862D01*
X1481620Y133840D01*
X1481657Y133811D01*
X1481719Y133790D01*
X1481778Y133759D01*
X1481832Y133751D01*
X1481869Y133739D01*
X1481909Y133740D01*
X1481963Y133732D01*
X1485773Y133732D01*
X1485838Y133743D01*
G37*
G36*
X972758Y133743D02*
X972758Y133743D01*
X972824Y133745D01*
X972867Y133763D01*
X972914Y133771D01*
X972971Y133805D01*
X973031Y133830D01*
X973066Y133861D01*
X973107Y133886D01*
X973149Y133937D01*
X973197Y133981D01*
X973219Y134023D01*
X973248Y134060D01*
X973269Y134122D01*
X973300Y134181D01*
X973308Y134235D01*
X973320Y134272D01*
X973319Y134312D01*
X973327Y134366D01*
X973327Y136906D01*
X973316Y136971D01*
X973314Y137037D01*
X973296Y137080D01*
X973288Y137127D01*
X973254Y137184D01*
X973229Y137244D01*
X973198Y137279D01*
X973173Y137320D01*
X973122Y137362D01*
X973078Y137410D01*
X973036Y137432D01*
X972999Y137461D01*
X972937Y137482D01*
X972878Y137513D01*
X972824Y137521D01*
X972787Y137533D01*
X972747Y137532D01*
X972693Y137540D01*
X968883Y137540D01*
X968818Y137529D01*
X968752Y137527D01*
X968709Y137509D01*
X968662Y137501D01*
X968605Y137467D01*
X968545Y137442D01*
X968510Y137411D01*
X968469Y137386D01*
X968428Y137335D01*
X968379Y137291D01*
X968357Y137249D01*
X968328Y137212D01*
X968307Y137150D01*
X968276Y137091D01*
X968268Y137037D01*
X968256Y137000D01*
X968256Y136997D01*
X968257Y136960D01*
X968249Y136906D01*
X968249Y134366D01*
X968260Y134301D01*
X968262Y134235D01*
X968280Y134192D01*
X968288Y134145D01*
X968322Y134088D01*
X968347Y134028D01*
X968378Y133993D01*
X968403Y133952D01*
X968454Y133911D01*
X968498Y133862D01*
X968540Y133840D01*
X968577Y133811D01*
X968639Y133790D01*
X968698Y133759D01*
X968752Y133751D01*
X968789Y133739D01*
X968829Y133740D01*
X968883Y133732D01*
X972693Y133732D01*
X972758Y133743D01*
G37*
G36*
X459678Y133743D02*
X459678Y133743D01*
X459744Y133745D01*
X459787Y133763D01*
X459834Y133771D01*
X459891Y133805D01*
X459951Y133830D01*
X459986Y133861D01*
X460027Y133886D01*
X460069Y133937D01*
X460117Y133981D01*
X460139Y134023D01*
X460168Y134060D01*
X460189Y134122D01*
X460220Y134181D01*
X460228Y134235D01*
X460240Y134272D01*
X460239Y134312D01*
X460247Y134366D01*
X460247Y136906D01*
X460236Y136971D01*
X460234Y137037D01*
X460216Y137080D01*
X460208Y137127D01*
X460174Y137184D01*
X460149Y137244D01*
X460118Y137279D01*
X460093Y137320D01*
X460042Y137362D01*
X459998Y137410D01*
X459956Y137432D01*
X459919Y137461D01*
X459857Y137482D01*
X459798Y137513D01*
X459744Y137521D01*
X459707Y137533D01*
X459667Y137532D01*
X459613Y137540D01*
X455803Y137540D01*
X455738Y137529D01*
X455672Y137527D01*
X455629Y137509D01*
X455582Y137501D01*
X455525Y137467D01*
X455465Y137442D01*
X455430Y137411D01*
X455389Y137386D01*
X455348Y137335D01*
X455299Y137291D01*
X455277Y137249D01*
X455248Y137212D01*
X455227Y137150D01*
X455196Y137091D01*
X455188Y137037D01*
X455176Y137000D01*
X455176Y136997D01*
X455177Y136960D01*
X455169Y136906D01*
X455169Y134366D01*
X455180Y134301D01*
X455182Y134235D01*
X455200Y134192D01*
X455208Y134145D01*
X455242Y134088D01*
X455267Y134028D01*
X455298Y133993D01*
X455323Y133952D01*
X455374Y133911D01*
X455418Y133862D01*
X455460Y133840D01*
X455497Y133811D01*
X455559Y133790D01*
X455618Y133759D01*
X455672Y133751D01*
X455709Y133739D01*
X455749Y133740D01*
X455803Y133732D01*
X459613Y133732D01*
X459678Y133743D01*
G37*
D10*
X12700Y457200D03*
X12700Y431800D03*
X12700Y406400D03*
X12700Y381000D03*
D11*
X7620Y627380D03*
X500380Y7620D03*
D10*
X12700Y203200D03*
D12*
X282219Y586740D03*
D13*
X317221Y586740D03*
D12*
X190779Y586740D03*
D13*
X225781Y586740D03*
D14*
X151130Y529590D03*
X140970Y529590D03*
X130810Y529590D03*
D10*
X328930Y535940D03*
X278765Y535940D03*
X229235Y535940D03*
X178435Y535940D03*
D15*
X129032Y228600D03*
X379032Y228600D03*
D14*
X462788Y135636D03*
X452628Y135636D03*
D16*
X431800Y457200D03*
X431800Y431800D03*
X431800Y508000D03*
D11*
X476250Y234950D03*
X476250Y247650D03*
X476250Y260350D03*
X476250Y273050D03*
X476250Y222250D03*
X488950Y234950D03*
X488950Y247650D03*
X488950Y260350D03*
X488950Y273050D03*
X488950Y222250D03*
D17*
X38100Y109220D03*
X38100Y119380D03*
D10*
X12700Y127000D03*
X12700Y101600D03*
X495300Y457200D03*
X495300Y431800D03*
X495300Y406400D03*
X495300Y381000D03*
X495300Y355600D03*
X495300Y330200D03*
X495300Y304800D03*
D18*
X79050Y50320D03*
X136850Y50320D03*
D10*
X12700Y152400D03*
D17*
X38100Y135890D03*
X38100Y146050D03*
D16*
X101600Y152400D03*
X101600Y127000D03*
X203200Y431800D03*
X203200Y457200D03*
D10*
X12700Y177800D03*
D16*
X342900Y342900D03*
X279400Y482600D03*
D19*
X368300Y612140D03*
X419100Y612140D03*
D20*
X25400Y25400D03*
X482600Y25400D03*
X482600Y609600D03*
X25400Y609600D03*
D10*
X525780Y457200D03*
X525780Y431800D03*
X525780Y406400D03*
X525780Y381000D03*
D11*
X520700Y627380D03*
X1013460Y7620D03*
D10*
X525780Y203200D03*
D12*
X795299Y586740D03*
D13*
X830301Y586740D03*
D12*
X703859Y586740D03*
D13*
X738861Y586740D03*
D14*
X664210Y529590D03*
X654050Y529590D03*
X643890Y529590D03*
D10*
X842010Y535940D03*
X791845Y535940D03*
X742315Y535940D03*
X691515Y535940D03*
D15*
X642112Y228600D03*
X892112Y228600D03*
D14*
X975868Y135636D03*
X965708Y135636D03*
D16*
X944880Y457200D03*
X944880Y431800D03*
X944880Y508000D03*
D11*
X989330Y234950D03*
X989330Y247650D03*
X989330Y260350D03*
X989330Y273050D03*
X989330Y222250D03*
X1002030Y234950D03*
X1002030Y247650D03*
X1002030Y260350D03*
X1002030Y273050D03*
X1002030Y222250D03*
D17*
X551180Y109220D03*
X551180Y119380D03*
D10*
X525780Y127000D03*
X525780Y101600D03*
X1008380Y457200D03*
X1008380Y431800D03*
X1008380Y406400D03*
X1008380Y381000D03*
X1008380Y355600D03*
X1008380Y330200D03*
X1008380Y304800D03*
D18*
X592130Y50320D03*
X649930Y50320D03*
D10*
X525780Y152400D03*
D17*
X551180Y135890D03*
X551180Y146050D03*
D16*
X614680Y152400D03*
X614680Y127000D03*
X716280Y431800D03*
X716280Y457200D03*
D10*
X525780Y177800D03*
D16*
X855980Y342900D03*
X792480Y482600D03*
D19*
X881380Y612140D03*
X932180Y612140D03*
D20*
X538480Y25400D03*
X995680Y25400D03*
X995680Y609600D03*
X538480Y609600D03*
D10*
X1038860Y457200D03*
X1038860Y431800D03*
X1038860Y406400D03*
X1038860Y381000D03*
D11*
X1033780Y627380D03*
X1526540Y7620D03*
D10*
X1038860Y203200D03*
D12*
X1308379Y586740D03*
D13*
X1343381Y586740D03*
D12*
X1216939Y586740D03*
D13*
X1251941Y586740D03*
D14*
X1177290Y529590D03*
X1167130Y529590D03*
X1156970Y529590D03*
D10*
X1355090Y535940D03*
X1304925Y535940D03*
X1255395Y535940D03*
X1204595Y535940D03*
D15*
X1155192Y228600D03*
X1405192Y228600D03*
D14*
X1488948Y135636D03*
X1478788Y135636D03*
D16*
X1457960Y457200D03*
X1457960Y431800D03*
X1457960Y508000D03*
D11*
X1502410Y234950D03*
X1502410Y247650D03*
X1502410Y260350D03*
X1502410Y273050D03*
X1502410Y222250D03*
X1515110Y234950D03*
X1515110Y247650D03*
X1515110Y260350D03*
X1515110Y273050D03*
X1515110Y222250D03*
D17*
X1064260Y109220D03*
X1064260Y119380D03*
D10*
X1038860Y127000D03*
X1038860Y101600D03*
X1521460Y457200D03*
X1521460Y431800D03*
X1521460Y406400D03*
X1521460Y381000D03*
X1521460Y355600D03*
X1521460Y330200D03*
X1521460Y304800D03*
D18*
X1105210Y50320D03*
X1163010Y50320D03*
D10*
X1038860Y152400D03*
D17*
X1064260Y135890D03*
X1064260Y146050D03*
D16*
X1127760Y152400D03*
X1127760Y127000D03*
X1229360Y431800D03*
X1229360Y457200D03*
D10*
X1038860Y177800D03*
D16*
X1369060Y342900D03*
X1305560Y482600D03*
D19*
X1394460Y612140D03*
X1445260Y612140D03*
D20*
X1051560Y25400D03*
X1508760Y25400D03*
X1508760Y609600D03*
X1051560Y609600D03*
D10*
X12700Y1130300D03*
X12700Y1104900D03*
X12700Y1079500D03*
X12700Y1054100D03*
D11*
X7620Y1300480D03*
X500380Y680720D03*
D10*
X12700Y876300D03*
D12*
X282219Y1259840D03*
D13*
X317221Y1259840D03*
D12*
X190779Y1259840D03*
D13*
X225781Y1259840D03*
D14*
X151130Y1202690D03*
X140970Y1202690D03*
X130810Y1202690D03*
D10*
X328930Y1209040D03*
X278765Y1209040D03*
X229235Y1209040D03*
X178435Y1209040D03*
D15*
X129032Y901700D03*
X379032Y901700D03*
D14*
X462788Y808736D03*
X452628Y808736D03*
D16*
X431800Y1130300D03*
X431800Y1104900D03*
X431800Y1181100D03*
D11*
X476250Y908050D03*
X476250Y920750D03*
X476250Y933450D03*
X476250Y946150D03*
X476250Y895350D03*
X488950Y908050D03*
X488950Y920750D03*
X488950Y933450D03*
X488950Y946150D03*
X488950Y895350D03*
D17*
X38100Y782320D03*
X38100Y792480D03*
D10*
X12700Y800100D03*
X12700Y774700D03*
X495300Y1130300D03*
X495300Y1104900D03*
X495300Y1079500D03*
X495300Y1054100D03*
X495300Y1028700D03*
X495300Y1003300D03*
X495300Y977900D03*
D18*
X79050Y723420D03*
X136850Y723420D03*
D10*
X12700Y825500D03*
D17*
X38100Y808990D03*
X38100Y819150D03*
D16*
X101600Y825500D03*
X101600Y800100D03*
X203200Y1104900D03*
X203200Y1130300D03*
D10*
X12700Y850900D03*
D16*
X342900Y1016000D03*
X279400Y1155700D03*
D19*
X368300Y1285240D03*
X419100Y1285240D03*
D20*
X25400Y698500D03*
X482600Y698500D03*
X482600Y1282700D03*
X25400Y1282700D03*
D10*
X525780Y1130300D03*
X525780Y1104900D03*
X525780Y1079500D03*
X525780Y1054100D03*
D11*
X520700Y1300480D03*
X1013460Y680720D03*
D10*
X525780Y876300D03*
D12*
X795299Y1259840D03*
D13*
X830301Y1259840D03*
D12*
X703859Y1259840D03*
D13*
X738861Y1259840D03*
D14*
X664210Y1202690D03*
X654050Y1202690D03*
X643890Y1202690D03*
D10*
X842010Y1209040D03*
X791845Y1209040D03*
X742315Y1209040D03*
X691515Y1209040D03*
D15*
X642112Y901700D03*
X892112Y901700D03*
D14*
X975868Y808736D03*
X965708Y808736D03*
D16*
X944880Y1130300D03*
X944880Y1104900D03*
X944880Y1181100D03*
D11*
X989330Y908050D03*
X989330Y920750D03*
X989330Y933450D03*
X989330Y946150D03*
X989330Y895350D03*
X1002030Y908050D03*
X1002030Y920750D03*
X1002030Y933450D03*
X1002030Y946150D03*
X1002030Y895350D03*
D17*
X551180Y782320D03*
X551180Y792480D03*
D10*
X525780Y800100D03*
X525780Y774700D03*
X1008380Y1130300D03*
X1008380Y1104900D03*
X1008380Y1079500D03*
X1008380Y1054100D03*
X1008380Y1028700D03*
X1008380Y1003300D03*
X1008380Y977900D03*
D18*
X592130Y723420D03*
X649930Y723420D03*
D10*
X525780Y825500D03*
D17*
X551180Y808990D03*
X551180Y819150D03*
D16*
X614680Y825500D03*
X614680Y800100D03*
X716280Y1104900D03*
X716280Y1130300D03*
D10*
X525780Y850900D03*
D16*
X855980Y1016000D03*
X792480Y1155700D03*
D19*
X881380Y1285240D03*
X932180Y1285240D03*
D20*
X538480Y698500D03*
X995680Y698500D03*
X995680Y1282700D03*
X538480Y1282700D03*
D10*
X1038860Y1130300D03*
X1038860Y1104900D03*
X1038860Y1079500D03*
X1038860Y1054100D03*
D11*
X1033780Y1300480D03*
X1526540Y680720D03*
D10*
X1038860Y876300D03*
D12*
X1308379Y1259840D03*
D13*
X1343381Y1259840D03*
D12*
X1216939Y1259840D03*
D13*
X1251941Y1259840D03*
D14*
X1177290Y1202690D03*
X1167130Y1202690D03*
X1156970Y1202690D03*
D10*
X1355090Y1209040D03*
X1304925Y1209040D03*
X1255395Y1209040D03*
X1204595Y1209040D03*
D15*
X1155192Y901700D03*
X1405192Y901700D03*
D14*
X1488948Y808736D03*
X1478788Y808736D03*
D16*
X1457960Y1130300D03*
X1457960Y1104900D03*
X1457960Y1181100D03*
D11*
X1502410Y908050D03*
X1502410Y920750D03*
X1502410Y933450D03*
X1502410Y946150D03*
X1502410Y895350D03*
X1515110Y908050D03*
X1515110Y920750D03*
X1515110Y933450D03*
X1515110Y946150D03*
X1515110Y895350D03*
D17*
X1064260Y782320D03*
X1064260Y792480D03*
D10*
X1038860Y800100D03*
X1038860Y774700D03*
X1521460Y1130300D03*
X1521460Y1104900D03*
X1521460Y1079500D03*
X1521460Y1054100D03*
X1521460Y1028700D03*
X1521460Y1003300D03*
X1521460Y977900D03*
D18*
X1105210Y723420D03*
X1163010Y723420D03*
D10*
X1038860Y825500D03*
D17*
X1064260Y808990D03*
X1064260Y819150D03*
D16*
X1127760Y825500D03*
X1127760Y800100D03*
X1229360Y1104900D03*
X1229360Y1130300D03*
D10*
X1038860Y850900D03*
D16*
X1369060Y1016000D03*
X1305560Y1155700D03*
D19*
X1394460Y1285240D03*
X1445260Y1285240D03*
D20*
X1051560Y698500D03*
X1508760Y698500D03*
X1508760Y1282700D03*
X1051560Y1282700D03*
D11*
X68580Y1362075D03*
X1464945Y1362075D03*
D21*
X59525Y-53975D02*
X59528Y-53753D01*
X59536Y-53531D01*
X59550Y-53309D01*
X59569Y-53087D01*
X59593Y-52867D01*
X59623Y-52646D01*
X59658Y-52427D01*
X59699Y-52208D01*
X59745Y-51991D01*
X59796Y-51775D01*
X59853Y-51560D01*
X59915Y-51346D01*
X59982Y-51135D01*
X60054Y-50924D01*
X60132Y-50716D01*
X60214Y-50510D01*
X60302Y-50306D01*
X60394Y-50103D01*
X60492Y-49904D01*
X60594Y-49707D01*
X60701Y-49512D01*
X60813Y-49320D01*
X60930Y-49131D01*
X61051Y-48944D01*
X61177Y-48761D01*
X61307Y-48581D01*
X61442Y-48404D01*
X61580Y-48231D01*
X61723Y-48061D01*
X61871Y-47894D01*
X62022Y-47731D01*
X62177Y-47572D01*
X62336Y-47417D01*
X62499Y-47266D01*
X62666Y-47118D01*
X62836Y-46975D01*
X63009Y-46837D01*
X63186Y-46702D01*
X63366Y-46572D01*
X63549Y-46446D01*
X63736Y-46325D01*
X63925Y-46208D01*
X64117Y-46096D01*
X64312Y-45989D01*
X64509Y-45887D01*
X64708Y-45789D01*
X64911Y-45697D01*
X65115Y-45609D01*
X65321Y-45527D01*
X65529Y-45449D01*
X65740Y-45377D01*
X65951Y-45310D01*
X66165Y-45248D01*
X66380Y-45191D01*
X66596Y-45140D01*
X66813Y-45094D01*
X67032Y-45053D01*
X67251Y-45018D01*
X67472Y-44988D01*
X67692Y-44964D01*
X67914Y-44945D01*
X68136Y-44931D01*
X68358Y-44923D01*
X68580Y-44920D01*
X68802Y-44923D01*
X69024Y-44931D01*
X69246Y-44945D01*
X69468Y-44964D01*
X69688Y-44988D01*
X69909Y-45018D01*
X70128Y-45053D01*
X70347Y-45094D01*
X70564Y-45140D01*
X70780Y-45191D01*
X70995Y-45248D01*
X71209Y-45310D01*
X71420Y-45377D01*
X71631Y-45449D01*
X71839Y-45527D01*
X72045Y-45609D01*
X72249Y-45697D01*
X72452Y-45789D01*
X72651Y-45887D01*
X72848Y-45989D01*
X73043Y-46096D01*
X73235Y-46208D01*
X73424Y-46325D01*
X73611Y-46446D01*
X73794Y-46572D01*
X73974Y-46702D01*
X74151Y-46837D01*
X74324Y-46975D01*
X74494Y-47118D01*
X74661Y-47266D01*
X74824Y-47417D01*
X74983Y-47572D01*
X75138Y-47731D01*
X75289Y-47894D01*
X75437Y-48061D01*
X75580Y-48231D01*
X75718Y-48404D01*
X75853Y-48581D01*
X75983Y-48761D01*
X76109Y-48944D01*
X76230Y-49131D01*
X76347Y-49320D01*
X76459Y-49512D01*
X76566Y-49707D01*
X76668Y-49904D01*
X76766Y-50103D01*
X76858Y-50306D01*
X76946Y-50510D01*
X77028Y-50716D01*
X77106Y-50924D01*
X77178Y-51135D01*
X77245Y-51346D01*
X77307Y-51560D01*
X77364Y-51775D01*
X77415Y-51991D01*
X77461Y-52208D01*
X77502Y-52427D01*
X77537Y-52646D01*
X77567Y-52867D01*
X77591Y-53087D01*
X77610Y-53309D01*
X77624Y-53531D01*
X77632Y-53753D01*
X77635Y-53975D01*
X77632Y-54197D01*
X77624Y-54419D01*
X77610Y-54641D01*
X77591Y-54863D01*
X77567Y-55083D01*
X77537Y-55304D01*
X77502Y-55523D01*
X77461Y-55742D01*
X77415Y-55959D01*
X77364Y-56175D01*
X77307Y-56390D01*
X77245Y-56604D01*
X77178Y-56815D01*
X77106Y-57026D01*
X77028Y-57234D01*
X76946Y-57440D01*
X76858Y-57644D01*
X76766Y-57847D01*
X76668Y-58046D01*
X76566Y-58243D01*
X76459Y-58438D01*
X76347Y-58630D01*
X76230Y-58819D01*
X76109Y-59006D01*
X75983Y-59189D01*
X75853Y-59369D01*
X75718Y-59546D01*
X75580Y-59719D01*
X75437Y-59889D01*
X75289Y-60056D01*
X75138Y-60219D01*
X74983Y-60378D01*
X74824Y-60533D01*
X74661Y-60684D01*
X74494Y-60832D01*
X74324Y-60975D01*
X74151Y-61113D01*
X73974Y-61248D01*
X73794Y-61378D01*
X73611Y-61504D01*
X73424Y-61625D01*
X73235Y-61742D01*
X73043Y-61854D01*
X72848Y-61961D01*
X72651Y-62063D01*
X72452Y-62161D01*
X72249Y-62253D01*
X72045Y-62341D01*
X71839Y-62423D01*
X71631Y-62501D01*
X71420Y-62573D01*
X71209Y-62640D01*
X70995Y-62702D01*
X70780Y-62759D01*
X70564Y-62810D01*
X70347Y-62856D01*
X70128Y-62897D01*
X69909Y-62932D01*
X69688Y-62962D01*
X69468Y-62986D01*
X69246Y-63005D01*
X69024Y-63019D01*
X68802Y-63027D01*
X68580Y-63030D01*
X68358Y-63027D01*
X68136Y-63019D01*
X67914Y-63005D01*
X67692Y-62986D01*
X67472Y-62962D01*
X67251Y-62932D01*
X67032Y-62897D01*
X66813Y-62856D01*
X66596Y-62810D01*
X66380Y-62759D01*
X66165Y-62702D01*
X65951Y-62640D01*
X65740Y-62573D01*
X65529Y-62501D01*
X65321Y-62423D01*
X65115Y-62341D01*
X64911Y-62253D01*
X64708Y-62161D01*
X64509Y-62063D01*
X64312Y-61961D01*
X64117Y-61854D01*
X63925Y-61742D01*
X63736Y-61625D01*
X63549Y-61504D01*
X63366Y-61378D01*
X63186Y-61248D01*
X63009Y-61113D01*
X62836Y-60975D01*
X62666Y-60832D01*
X62499Y-60684D01*
X62336Y-60533D01*
X62177Y-60378D01*
X62022Y-60219D01*
X61871Y-60056D01*
X61723Y-59889D01*
X61580Y-59719D01*
X61442Y-59546D01*
X61307Y-59369D01*
X61177Y-59189D01*
X61051Y-59006D01*
X60930Y-58819D01*
X60813Y-58630D01*
X60701Y-58438D01*
X60594Y-58243D01*
X60492Y-58046D01*
X60394Y-57847D01*
X60302Y-57644D01*
X60214Y-57440D01*
X60132Y-57234D01*
X60054Y-57026D01*
X59982Y-56815D01*
X59915Y-56604D01*
X59853Y-56390D01*
X59796Y-56175D01*
X59745Y-55959D01*
X59699Y-55742D01*
X59658Y-55523D01*
X59623Y-55304D01*
X59593Y-55083D01*
X59569Y-54863D01*
X59550Y-54641D01*
X59536Y-54419D01*
X59528Y-54197D01*
X59525Y-53975D01*
D22*
X68580Y-53975D03*
M02*
